<?xml version="1.0" encoding="UTF-8"?><svg id="a" xmlns="http://www.w3.org/2000/svg" viewBox="0 0 480 138.27"><defs><style>.be{fill:#9594c4;}.bf{fill:#fecc37;}.bg{fill:#a0c7e7;}.bh{fill:#ea663b;}.bi{fill:#981167;}.bj{fill:#191919;}</style></defs><rect id="b" class="bj" x="236.25" y="10.51" width="3.22" height="17.83"/><path id="c" class="bj" d="M247.69,18.79c0-.72-.03-1.52-.08-2.39s-.09-1.57-.11-2.11h.12l8.56,14.05h4V10.51h-2.88v9.65c0,.76.02,1.56.05,2.4s.07,1.47.11,1.91h-.1l-8.53-13.95h-4.03v17.83h2.88v-9.55Z"/><path id="d" class="bj" d="M269.49,28.59c1.76.12,3.5-.4,4.92-1.46,1.13-.93,1.76-2.32,1.72-3.78.03-.83-.17-1.64-.59-2.36-.42-.64-.97-1.18-1.63-1.58-.77-.47-1.59-.88-2.43-1.21-1.01-.36-1.99-.81-2.93-1.33-.64-.37-1.02-1.06-.98-1.8-.03-.65.28-1.27.8-1.64.64-.42,1.4-.63,2.17-.59.71,0,1.42.1,2.11.28.76.2,1.51.46,2.23.77l1.02-2.48c-.8-.34-1.62-.62-2.47-.82-.92-.22-1.86-.33-2.81-.33-1.6-.07-3.17.38-4.5,1.27-1.17.84-1.84,2.22-1.77,3.66-.04.85.16,1.69.57,2.43.4.65.96,1.2,1.61,1.6.76.47,1.56.86,2.4,1.18,1.01.37,1.99.83,2.93,1.36,1.01.64,1.31,1.97.67,2.98-.15.23-.34.44-.56.6-.73.46-1.59.68-2.45.64-.93,0-1.86-.12-2.76-.34-.9-.22-1.77-.52-2.6-.9v2.92c.76.32,1.55.56,2.36.7.97.17,1.96.24,2.95.23"/><path id="e" class="bj" d="M283.98,28.34h3.19v-15.13h5.15v-2.7h-13.49v2.7h5.15v15.13Z"/><path id="f" class="bj" d="M299.51,28.34h3.26v-6.92l6.02-10.92h-3.47l-4.15,8.06-4.16-8.06h-3.5l6.02,11.04v6.79Z"/><path id="g" class="bj" d="M315.11,28.34h3.2v-15.13h5.15v-2.7h-13.49v2.7h5.15v15.13Z"/><path id="h" class="bj" d="M333.97,28.59c2.01.14,3.99-.52,5.5-1.85,1.29-1.34,1.97-3.15,1.88-5.01v-11.23h-3.22v11.04c0,2.92-1.34,4.37-4.03,4.37s-4.09-1.47-4.09-4.4v-11.01h-3.26v11.26c-.11,1.86.57,3.69,1.88,5.02,1.48,1.28,3.4,1.93,5.35,1.8"/><path id="i" class="bj" d="M349.81,28.34h3.19v-15.13h5.15v-2.7h-13.49v2.7h5.15v15.13Z"/><path id="j" class="bj" d="M239.47,57.45h2.73l4.25,7.07h3.63l-5.09-7.88c2.13-.61,3.56-2.6,3.47-4.81,0-3.43-2.36-5.15-7.07-5.15h-5.15v17.83h3.23v-7.07ZM239.47,49.23h1.86c1-.06,1.99.16,2.87.64.69.49,1.06,1.31.98,2.15.07.85-.29,1.69-.96,2.22-.8.51-1.75.76-2.7.7h-2.05v-5.71Z"/><path id="k" class="bj" d="M265.66,47.56c-2.99-1.53-6.54-1.53-9.54,0-1.25.75-2.24,1.87-2.82,3.21-.65,1.51-.96,3.15-.93,4.79-.04,1.66.28,3.31.93,4.84.58,1.34,1.56,2.47,2.81,3.22,3,1.53,6.55,1.53,9.55,0,1.24-.76,2.22-1.88,2.79-3.22,1.22-3.09,1.22-6.54,0-9.63-.57-1.33-1.55-2.46-2.79-3.21M264.76,60.32c-1.9,2.15-5.19,2.35-7.34.45-.16-.14-.32-.3-.46-.46-.87-1.41-1.29-3.06-1.21-4.71-.09-1.66.34-3.32,1.22-4.73,1.9-2.15,5.18-2.35,7.33-.45.14.13.28.26.41.4.91,1.42,1.34,3.09,1.24,4.78.09,1.66-.33,3.31-1.19,4.73"/><path id="l" class="bj" d="M259.17,45.05h2.17c.5-.37,1.06-.85,1.71-1.43.64-.58,1.25-1.16,1.81-1.75.46-.46.89-.96,1.29-1.47v-.31h-3.84c-.28.53-.59,1.05-.93,1.55-.37.56-.75,1.11-1.15,1.64-.39.54-.74,1-1.05,1.4v.37Z"/><path id="m" class="bj" d="M279.17,44.12c.47,0,.93-.15,1.29-.45.72-.83.72-2.07,0-2.9-.37-.29-.82-.44-1.29-.43-.49-.02-.96.14-1.35.43-.72.83-.72,2.07,0,2.9.38.31.86.47,1.35.45"/><path id="n" class="bj" d="M272.28,64.52h13.4v-2.64h-9.37l9.12-13.15v-2.05h-12.84v2.64h8.84l-9.15,13.18v2.02Z"/><path id="o" class="bj" d="M293.87,46.69h-4.03v17.83h2.89v-9.55c0-.72-.03-1.52-.08-2.39s-.09-1.57-.11-2.11h.12l8.56,14.05h4v-17.83h-2.88v9.65c0,.76.02,1.56.05,2.4.03.84.07,1.47.11,1.91h-.1l-8.53-13.95Z"/><path id="p" class="bj" d="M313.36,63.62c3,1.53,6.55,1.53,9.55,0,1.24-.76,2.22-1.88,2.79-3.22,1.22-3.09,1.22-6.54,0-9.63-.57-1.33-1.55-2.46-2.79-3.21-2.99-1.53-6.54-1.53-9.54,0-1.25.75-2.24,1.87-2.82,3.21-.65,1.51-.96,3.15-.93,4.79-.04,1.66.28,3.31.93,4.84.58,1.34,1.56,2.47,2.81,3.22M314.23,50.86c1.9-2.15,5.18-2.35,7.33-.45.14.13.28.26.41.4.91,1.42,1.34,3.09,1.24,4.78.09,1.66-.33,3.31-1.19,4.73-1.9,2.15-5.19,2.35-7.34.45-.16-.14-.32-.3-.46-.46-.87-1.41-1.29-3.06-1.21-4.71-.09-1.67.34-3.32,1.22-4.73"/><path id="q" class="bj" d="M330.96,46.69v17.83h3.22v-7.07h2.73l4.25,7.07h3.63l-5.09-7.88c2.13-.61,3.56-2.6,3.47-4.81,0-3.43-2.36-5.15-7.07-5.15h-5.15ZM339.89,52.02c.07.85-.29,1.69-.96,2.22-.8.51-1.75.76-2.7.7h-2.05v-5.71h1.86c1-.06,1.99.16,2.87.64.69.49,1.06,1.31.98,2.15"/><path id="r" class="bj" d="M350.84,47.56c-1.25.75-2.24,1.87-2.82,3.21-.65,1.51-.96,3.15-.93,4.79-.04,1.66.28,3.31.93,4.84.58,1.34,1.56,2.47,2.81,3.22,3,1.53,6.55,1.53,9.55,0,1.24-.76,2.22-1.88,2.79-3.22,1.22-3.09,1.22-6.54,0-9.63-.57-1.33-1.55-2.46-2.79-3.21-2.99-1.53-6.54-1.53-9.54,0M359.42,50.81c.91,1.42,1.34,3.09,1.24,4.78.09,1.66-.33,3.31-1.19,4.73-1.9,2.15-5.19,2.35-7.34.45-.16-.14-.32-.3-.46-.46-.87-1.41-1.29-3.06-1.21-4.71-.09-1.67.34-3.32,1.22-4.73,1.9-2.15,5.18-2.35,7.33-.45.14.13.28.26.41.4"/><path id="s" class="bj" d="M374.03,46.69h-5.61v17.83h5.12c2.56.16,5.08-.66,7.05-2.29,1.68-1.53,2.53-3.81,2.53-6.85.16-2.39-.7-4.73-2.37-6.45-1.86-1.59-4.27-2.39-6.71-2.23M373.63,61.89h-1.98v-12.56h2.33c3.87,0,5.8,2.05,5.8,6.14s-2.05,6.42-6.14,6.42"/><path id="t" class="bj" d="M390.47,54.97c0-.72-.03-1.52-.08-2.39-.05-.87-.09-1.57-.11-2.11h.12l8.56,14.05h4v-17.83h-2.88v9.65c0,.76.02,1.56.05,2.4.03.84.07,1.47.11,1.91h-.09l-8.53-13.96h-4.03v17.83h2.88v-9.55Z"/><path id="u" class="bj" d="M411.26,63.62c3,1.53,6.55,1.53,9.55,0,1.24-.76,2.22-1.88,2.79-3.22,1.22-3.09,1.22-6.54,0-9.63-.57-1.33-1.55-2.46-2.79-3.21-2.99-1.53-6.54-1.53-9.54,0-1.25.75-2.24,1.87-2.82,3.21-.65,1.51-.96,3.15-.93,4.79-.04,1.66.28,3.31.93,4.84.58,1.34,1.56,2.47,2.81,3.22M412.13,50.86c1.9-2.15,5.18-2.35,7.33-.45.14.13.28.26.41.4.91,1.42,1.34,3.09,1.24,4.77.09,1.66-.33,3.31-1.19,4.73-1.9,2.15-5.19,2.35-7.34.45-.16-.14-.32-.3-.46-.46-.87-1.41-1.29-3.06-1.21-4.71-.09-1.66.34-3.31,1.22-4.73"/><path id="v" class="bj" d="M437.72,55.59c-.77-.47-1.59-.88-2.43-1.21-1.01-.36-1.99-.81-2.93-1.33-.64-.37-1.02-1.06-.98-1.8-.03-.65.28-1.27.81-1.64.64-.42,1.4-.63,2.17-.59.71,0,1.42.1,2.11.28.76.2,1.51.46,2.23.78l1.02-2.48c-.8-.34-1.62-.62-2.47-.82-.92-.22-1.86-.33-2.81-.33-1.6-.07-3.17.38-4.5,1.27-1.17.84-1.84,2.22-1.77,3.66-.04.85.16,1.69.57,2.43.4.65.96,1.2,1.61,1.6.76.47,1.56.86,2.4,1.18,1.01.37,1.99.83,2.93,1.36,1.01.64,1.31,1.97.67,2.98-.15.23-.34.44-.57.6-.73.46-1.59.68-2.45.64-.93,0-1.86-.12-2.76-.34-.9-.22-1.77-.52-2.6-.9v2.92c.76.32,1.55.56,2.36.7.97.17,1.96.24,2.95.23,1.76.12,3.5-.4,4.92-1.46,1.13-.93,1.76-2.32,1.72-3.78.03-.83-.17-1.64-.59-2.36-.42-.64-.97-1.18-1.63-1.58"/><path id="w" class="bj" d="M436.06,43.62c.64-.58,1.25-1.16,1.81-1.75.46-.46.89-.96,1.29-1.47v-.31h-3.85c-.28.53-.59,1.05-.93,1.55-.37.56-.75,1.11-1.15,1.64-.39.54-.74,1-1.05,1.4v.37h2.17c.5-.37,1.07-.85,1.71-1.43"/><path id="x" class="bj" d="M447.22,47.6c-1.29.76-2.33,1.88-2.99,3.22-.72,1.48-1.07,3.11-1.04,4.76-.04,1.65.28,3.3.92,4.82.57,1.33,1.53,2.45,2.76,3.21,1.42.81,3.03,1.21,4.67,1.15,1.65.03,3.29-.24,4.84-.81v-2.79c-.71.29-1.44.51-2.19.68-.74.17-1.49.25-2.25.25-1.55.12-3.05-.52-4.05-1.71-.96-1.4-1.42-3.08-1.32-4.78-.09-1.7.4-3.38,1.4-4.76.97-1.19,2.44-1.84,3.97-1.75.71,0,1.41.1,2.09.29.7.2,1.38.45,2.03.76l1.02-2.57c-1.62-.77-3.39-1.16-5.18-1.15-1.64-.05-3.26.36-4.68,1.16"/><rect id="y" class="bj" x="461.15" y="46.69" width="3.22" height="17.83"/><path id="z" class="bj" d="M241.79,99.59c.96-.93,1.44-2.46,1.44-4.59v-12.12h-3.2v12.37c.07.86-.15,1.72-.62,2.43-.51.55-1.24.83-1.98.76-.44,0-.88-.05-1.32-.14-.43-.1-.85-.24-1.26-.42v2.64c.94.34,1.94.49,2.95.46,1.46.08,2.9-.42,3.99-1.4"/><path id="aa" class="bj" d="M248.31,100.7h5.03c-.26.21-.5.43-.74.67-.46.45-.84.97-1.15,1.54-.29.53-.45,1.13-.45,1.74-.04.83.26,1.63.84,2.23.7.61,1.62.91,2.54.84.37,0,.74-.03,1.1-.09.32-.06.64-.13.95-.22v-2.02c-.19.04-.41.09-.67.14-.3.06-.61.08-.91.08-.36.02-.71-.1-.98-.34-.25-.27-.38-.63-.36-.99,0-.63.2-1.24.56-1.75.47-.66,1-1.26,1.58-1.81h3.04v-2.57h-7.16v-5.4h6.7v-2.57h-6.7v-4.71h7.16v-2.57h-10.39v17.83Z"/><path id="ab" class="bj" d="M262.48,85.51h8.84l-9.15,13.18v2.02h13.4v-2.64h-9.36l9.12-13.15v-2.05h-12.84v2.64Z"/><path id="ac" class="bj" d="M284.81,90.93l-4.16-8.06h-3.5l6.02,11.04v6.79h3.26v-6.92l6.02-10.92h-3.47l-4.16,8.06Z"/><path id="ad" class="bj" d="M305.81,82.87l-5.4,6.33c-.27.35-.56.71-.87,1.07s-.59.72-.84,1.07v-8.47h-3.22v17.83h3.22v-6.61l1.89-1.43,5.18,8.03h3.69l-6.58-10.05,6.54-7.78h-3.63Z"/><path id="ae" class="bj" d="M314.85,99.8c3,1.53,6.55,1.53,9.55,0,1.24-.76,2.22-1.88,2.79-3.23,1.22-3.09,1.22-6.54,0-9.63-.58-1.33-1.55-2.46-2.79-3.21-2.99-1.53-6.54-1.53-9.54,0-1.25.75-2.24,1.87-2.82,3.21-.65,1.51-.97,3.15-.93,4.79-.04,1.66.28,3.31.93,4.84.58,1.34,1.56,2.47,2.81,3.23M315.72,87.04c1.9-2.15,5.18-2.35,7.33-.45.14.13.28.26.41.4.91,1.42,1.34,3.09,1.24,4.78.09,1.66-.33,3.31-1.2,4.73-1.9,2.15-5.19,2.35-7.34.45-.16-.14-.32-.3-.46-.46-.87-1.41-1.29-3.06-1.21-4.71-.09-1.66.34-3.32,1.22-4.73"/><path id="af" class="bj" d="M348.36,93.69c-.08.29-.18.67-.29,1.15-.11.48-.22.97-.33,1.47-.1.51-.18.94-.22,1.29-.1-.62-.25-1.37-.45-2.26s-.38-1.65-.54-2.29l-2.7-10.17h-3.07l-2.67,10.11c-.19.74-.37,1.53-.54,2.37s-.32,1.58-.45,2.22c-.08-.6-.22-1.34-.42-2.23s-.38-1.66-.54-2.33l-2.54-10.14h-3.13l4.68,17.83h3.6l2.79-10.61c.14-.52.29-1.13.43-1.85.15-.71.25-1.33.31-1.85.06.5.17,1.11.33,1.85.15.73.3,1.37.45,1.91l2.79,10.54h3.6l4.74-17.83h-3.13l-2.7,10.82Z"/><path id="ag" class="bj" d="M357.66,100.7h10.39v-2.57h-7.16v-5.4h6.7v-2.57h-6.7v-4.71h7.16v-2.57h-10.39v17.83Z"/><path id="ah" class="bj" d="M378.33,99.59c.96-.93,1.44-2.46,1.44-4.59v-12.12h-3.2v12.37c.07.86-.15,1.72-.62,2.43-.51.55-1.24.83-1.98.76-.44,0-.88-.05-1.32-.14-.43-.1-.85-.24-1.26-.42v2.64c.94.34,1.94.49,2.95.46,1.46.08,2.9-.42,3.99-1.4"/><path id="ai" class="bj" d="M241.4,119.05h-5.15v17.83h3.23v-7.07h2.73l4.25,7.07h3.63l-5.09-7.88c2.13-.61,3.56-2.6,3.47-4.81,0-3.43-2.36-5.15-7.07-5.15M244.22,126.6c-.8.51-1.75.76-2.7.7h-2.05v-5.71h1.86c1-.06,1.99.16,2.87.64.69.49,1.06,1.31.98,2.15.07.85-.29,1.69-.96,2.22"/><path id="aj" class="bj" d="M251.88,136.88h13.4v-2.64h-9.37l9.12-13.15v-2.05h-12.84v2.64h8.84l-9.15,13.18v2.02Z"/><path id="ak" class="bj" d="M279.51,134.31h-7.16v-5.4h6.7v-2.57h-6.7v-4.71h7.16v-2.57h-10.39v17.83h10.39v-2.57Z"/><path id="al" class="bj" d="M291.23,121.47c.71,0,1.41.1,2.09.29.7.2,1.38.45,2.03.76l1.02-2.57c-1.62-.77-3.39-1.16-5.18-1.15-1.64-.05-3.26.36-4.68,1.16-1.29.76-2.33,1.88-2.99,3.23-.72,1.48-1.07,3.11-1.04,4.76-.04,1.65.28,3.3.92,4.82.57,1.33,1.53,2.45,2.76,3.21,1.42.81,3.03,1.21,4.67,1.15,1.65.03,3.29-.24,4.84-.81v-2.8c-.71.29-1.44.51-2.19.68-.74.17-1.49.25-2.25.25-1.55.12-3.05-.52-4.05-1.71-.96-1.4-1.42-3.08-1.32-4.78-.09-1.7.4-3.38,1.4-4.76.97-1.19,2.44-1.84,3.97-1.75"/><path id="am" class="bj" d="M312.41,134.25h-9.36l9.12-13.15v-2.05h-12.84v2.64h8.84l-9.15,13.18v2.02h13.4v-2.64Z"/><path id="an" class="bj" d="M325.96,119.05l-4.16,8.06-4.16-8.06h-3.5l6.02,11.04v6.79h3.26v-6.91l6.02-10.92h-3.48Z"/><path id="ao" class="bj" d="M337.9,119.05h-5.43v17.83h3.22v-6.57h1.98c2.38,0,4.13-.54,5.26-1.63,1.13-1.1,1.75-2.62,1.69-4.2.1-1.53-.52-3.02-1.67-4.03-1.47-1.04-3.26-1.53-5.05-1.4M340.28,127.02c-.88.5-1.89.73-2.9.68h-1.67v-6.08h2.11c2.36,0,3.54.99,3.53,2.98.1.94-.31,1.86-1.07,2.42"/><path id="ap" class="bj" d="M348.38,123.13c-.65,1.51-.96,3.15-.93,4.79-.04,1.66.28,3.31.93,4.84.58,1.34,1.56,2.47,2.81,3.23,3,1.53,6.55,1.53,9.55,0,1.24-.76,2.22-1.89,2.79-3.23,1.22-3.09,1.22-6.54,0-9.63-.57-1.33-1.55-2.46-2.79-3.21-2.99-1.53-6.54-1.53-9.54,0-1.25.75-2.24,1.87-2.82,3.21M352.06,123.22c1.9-2.15,5.18-2.35,7.33-.45.14.13.28.26.41.4.91,1.42,1.34,3.09,1.24,4.77.09,1.66-.33,3.31-1.19,4.73-1.9,2.15-5.19,2.35-7.34.45-.16-.14-.32-.3-.46-.46-.87-1.41-1.29-3.06-1.21-4.71-.09-1.66.34-3.32,1.22-4.73"/><path id="aq" class="bj" d="M367.49,123.73c-.04.85.16,1.69.57,2.43.4.65.96,1.2,1.61,1.6.76.47,1.56.86,2.4,1.18,1.01.37,1.99.83,2.93,1.37,1.01.64,1.31,1.97.67,2.98-.15.23-.34.44-.57.6-.73.46-1.59.68-2.45.64-.93,0-1.86-.12-2.76-.34-.9-.22-1.77-.52-2.6-.9v2.92c.76.32,1.55.56,2.36.7.97.17,1.96.24,2.95.23,1.76.12,3.5-.4,4.92-1.46,1.13-.93,1.77-2.32,1.73-3.79.03-.83-.17-1.64-.59-2.36-.42-.64-.97-1.18-1.63-1.58-.77-.48-1.59-.88-2.43-1.21-1.01-.36-1.99-.81-2.93-1.33-.64-.37-1.02-1.06-.98-1.8-.03-.65.28-1.27.81-1.64.64-.42,1.4-.63,2.17-.59.71,0,1.42.1,2.11.28.76.2,1.51.46,2.23.78l1.02-2.48c-.8-.34-1.62-.62-2.47-.82-.92-.22-1.86-.33-2.81-.33-1.6-.07-3.17.38-4.5,1.27-1.17.84-1.84,2.22-1.77,3.66"/><path id="ar" class="bj" d="M386.72,130.31h1.98c2.38,0,4.13-.54,5.26-1.63,1.13-1.1,1.75-2.62,1.69-4.2.1-1.53-.52-3.02-1.68-4.03-1.47-1.04-3.26-1.53-5.05-1.4h-5.43v17.83h3.22v-6.57ZM386.72,121.63h2.11c2.36,0,3.54.99,3.53,2.98.1.94-.31,1.86-1.07,2.42-.88.5-1.89.73-2.9.68h-1.67v-6.08Z"/><path id="as" class="bj" d="M399.4,123.13c-.65,1.51-.97,3.15-.93,4.79-.04,1.66.28,3.31.93,4.84.58,1.34,1.56,2.47,2.81,3.23,3,1.53,6.55,1.53,9.55,0,1.24-.76,2.22-1.88,2.79-3.23,1.22-3.09,1.22-6.54,0-9.63-.57-1.33-1.55-2.46-2.79-3.21-2.99-1.53-6.54-1.53-9.53,0-1.25.75-2.24,1.87-2.82,3.21M406.97,121.47c1.49-.11,2.93.53,3.85,1.71.91,1.42,1.34,3.09,1.24,4.78.09,1.66-.33,3.31-1.19,4.73-1.9,2.15-5.19,2.35-7.34.45-.16-.14-.32-.3-.46-.46-.87-1.41-1.29-3.06-1.21-4.71-.09-1.66.34-3.32,1.22-4.73.91-1.21,2.38-1.88,3.89-1.75"/><path id="at" class="bj" d="M419.81,119.05v17.83h10.95v-2.64h-7.72v-15.2h-3.22Z"/><rect id="au" class="bj" x="434.57" y="119.05" width="3.22" height="17.83"/><path id="av" class="bj" d="M446.41,136.88h3.19v-15.14h5.15v-2.7h-13.49v2.7h5.15v15.14Z"/><path id="aw" class="bj" d="M458.2,136.88h10.39v-2.57h-7.16v-5.4h6.7v-2.57h-6.7v-4.71h7.16v-2.57h-10.39v17.83Z"/><path id="ax" class="bj" d="M476.81,119.05v12.37c.07.86-.15,1.72-.62,2.43-.51.55-1.24.83-1.98.76-.44,0-.88-.05-1.32-.14-.43-.1-.85-.24-1.26-.42v2.64c.94.34,1.94.49,2.95.46,1.46.08,2.9-.42,3.98-1.4.96-.93,1.44-2.46,1.44-4.59v-12.12h-3.2Z"/><path id="ay" class="bf" d="M79.9,69.13L187.56,1.93c5.93-3.71,13.75-1.92,17.46,4.01,3.71,5.93,1.92,13.75-4.01,17.46-.72.45-1.49.83-2.29,1.13l-118.81,44.6Z"/><path id="az" class="bi" d="M79.9,69.13l107.65,67.2c5.93,3.71,13.75,1.92,17.46-4.01,3.71-5.93,1.92-13.75-4.01-17.46-.72-.45-1.49-.83-2.29-1.13l-118.81-44.6Z"/><path id="ba" class="bg" d="M79.9,69.13l108.52,40.74c7.08,2.66,14.97-.92,17.63-8,2.66-7.08-.92-14.97-8-17.63-1.01-.38-2.06-.64-3.13-.77l-115.02-14.33Z"/><path id="bb" class="bh" d="M79.9,69.14l108.52-40.74c7.08-2.66,14.97.92,17.63,8,2.66,7.08-.92,14.97-8,17.63-1.01.38-2.06.64-3.13.77l-115.02,14.33Z"/><path id="bc" class="be" d="M206.93,69.13h0c0,7.72-6.26,13.98-13.98,13.98-.58,0-1.15-.04-1.72-.11l-111.33-13.87,111.32-13.87c7.66-.95,14.64,4.49,15.59,12.15.07.57.11,1.15.11,1.72"/><path id="bd" class="bj" d="M25.64,107.78h28.75l6.59,29.11h18.86L49.44,1.22h-18.68L0,136.9h19.04l6.59-29.11ZM40.01,43.7l9.98,44.68h-19.96l9.98-44.68Z"/></svg>