<?xml version="1.0" encoding="UTF-8"?><svg id="a" xmlns="http://www.w3.org/2000/svg" viewBox="0 0 399.92 86.05"><defs><style>.ay{fill:#fbbe0a;}.az{fill:#fff;}.ba{fill:#d7081b;}.bb{fill:#171615;}</style></defs><rect id="b" class="ba" x="89.24" y="81.11" width="310.76" height="4.79"/><rect id="c" class="az" x="89.24" y="76.32" width="310.76" height="4.79"/><rect id="d" class="bb" x="89.24" y="75.98" width="310.76" height=".33"/><g id="e"><g id="f"><path id="g" class="bb" d="M98.8,23.09c.09.24.18.48.28.72.09-.25.18-.49.28-.72s.21-.46.34-.69l6.5-11.81c.07-.16.2-.3.36-.37.17-.05.35-.07.54-.07h1.92v19.21h-2.28v-14.12c0-.19,0-.39.01-.6s.02-.43.04-.66l-6.58,12.01c-.17.37-.54.6-.94.6h-.37c-.4,0-.77-.23-.94-.6l-6.73-12.06c.03.23.05.46.06.68s.02.43.02.62v14.12h-2.28V10.14h1.92c.18,0,.36.02.54.07.16.08.29.21.36.37l6.64,11.82c.13.22.24.44.33.68"/><path id="h" class="bb" d="M116.51,11.51c0,.22-.05.45-.14.65-.09.2-.22.38-.38.54-.16.16-.34.28-.54.37-.21.09-.43.13-.66.13-.22,0-.45-.04-.65-.13-.4-.18-.72-.5-.9-.9-.09-.21-.14-.43-.13-.66,0-.23.04-.45.13-.66.09-.21.21-.39.37-.55.15-.15.34-.28.54-.37.2-.09.43-.14.65-.13.23,0,.45.04.66.13.2.09.39.21.54.37.16.16.28.34.38.55.09.21.14.44.14.66M115.97,29.36h-2.39v-13.58h2.39v13.58Z"/><path id="i" class="bb" d="M120.18,29.36v-13.58h1.42c.31-.02.59.19.64.5l.19,1.48c.57-.63,1.24-1.17,1.98-1.58.78-.41,1.65-.62,2.53-.6.67-.01,1.34.11,1.96.37.55.23,1.04.59,1.42,1.05.39.48.69,1.03.86,1.63.2.68.31,1.39.3,2.11v8.65h-2.39v-8.66c.05-.86-.19-1.7-.7-2.39-.55-.6-1.34-.92-2.15-.85-.69,0-1.37.17-1.98.51-.64.36-1.22.83-1.7,1.38v10h-2.39Z"/><path id="j" class="bb" d="M138.28,11.51c0,.22-.05.45-.14.65-.09.2-.22.38-.38.54-.16.16-.34.28-.54.37-.21.09-.43.13-.66.13-.22,0-.45-.04-.65-.13-.2-.09-.38-.21-.54-.37-.15-.15-.28-.34-.37-.54-.09-.21-.14-.43-.13-.65,0-.23.04-.45.13-.66.09-.2.21-.39.37-.55.15-.15.34-.28.54-.37.21-.09.43-.14.65-.13.23,0,.45.04.66.13.2.09.39.21.54.37.16.16.28.34.38.55.09.21.14.44.14.66M137.75,29.36h-2.39v-13.58h2.39v13.58Z"/><path id="k" class="bb" d="M149.73,18.02c-.09.19-.29.31-.5.3-.16,0-.32-.06-.46-.15-.17-.1-.38-.21-.62-.33-.28-.14-.58-.25-.88-.34-.39-.11-.8-.16-1.21-.15-.37,0-.73.05-1.09.15-.3.09-.58.23-.82.42-.22.17-.4.38-.52.62-.12.24-.18.5-.18.77-.01.32.1.63.3.87.22.25.5.45.8.6.36.18.74.33,1.12.45.42.13.85.27,1.29.42s.87.31,1.29.49c.4.17.78.4,1.13.67.33.27.6.6.8.99.21.44.31.92.3,1.4,0,.6-.11,1.19-.34,1.74-.22.53-.56,1-.99,1.38-.47.41-1.02.72-1.61.92-.71.24-1.45.35-2.2.34-.88.01-1.75-.14-2.57-.46-.72-.28-1.38-.68-1.96-1.19l.56-.91c.06-.11.15-.2.25-.27.12-.07.25-.1.39-.09.19,0,.36.07.51.19.18.12.4.26.65.42.29.17.6.31.93.42.44.14.9.2,1.36.19.41,0,.83-.05,1.22-.18.32-.11.62-.27.87-.49.22-.19.4-.44.52-.71.11-.27.17-.56.17-.86.01-.34-.09-.67-.3-.93-.22-.26-.49-.48-.8-.63-.36-.19-.74-.34-1.13-.46-.42-.13-.86-.27-1.3-.41s-.88-.31-1.3-.49c-.41-.17-.79-.41-1.13-.69-.34-.28-.61-.63-.8-1.03-.21-.46-.32-.97-.3-1.48,0-.52.11-1.03.32-1.49.22-.48.54-.91.94-1.26.45-.38.96-.68,1.51-.86.66-.22,1.35-.33,2.05-.32.82-.01,1.64.13,2.41.42.68.26,1.31.66,1.84,1.16l-.53.87Z"/><path id="l" class="bb" d="M157.71,29.57c-.91.06-1.81-.27-2.47-.9-.62-.71-.93-1.64-.86-2.59v-8.31h-1.64c-.13,0-.26-.04-.36-.13-.11-.1-.16-.25-.15-.4v-.95l2.23-.28.55-4.2c.01-.13.08-.25.18-.33.1-.09.24-.13.37-.13h1.21v4.68h3.89v1.73h-3.89v8.15c-.04.46.11.92.41,1.27.28.28.67.43,1.07.42.22,0,.44-.03.65-.1.17-.06.32-.13.48-.22.13-.08.25-.15.34-.22.07-.06.16-.09.25-.1.14.01.27.1.34.23l.7,1.14c-.43.39-.94.7-1.49.9-.57.22-1.18.33-1.8.33"/><path id="m" class="bb" d="M168.98,15.56c.77,0,1.53.13,2.25.41.67.26,1.28.66,1.78,1.18.52.54.92,1.19,1.17,1.9.29.83.44,1.7.42,2.58.02.26-.02.51-.12.75-.11.14-.28.21-.46.19h-9.04c0,.76.12,1.52.35,2.24.19.58.49,1.12.89,1.59.37.42.83.74,1.34.95.55.22,1.15.32,1.74.32.52.01,1.05-.06,1.55-.21.38-.12.76-.27,1.12-.45.27-.14.53-.29.79-.45.16-.12.35-.19.54-.21.18,0,.35.08.46.23l.67.87c-.3.36-.66.68-1.06.93-.41.27-.86.48-1.32.65-.47.17-.96.3-1.46.38-.49.08-.99.13-1.49.13-.89,0-1.77-.15-2.59-.48-.78-.31-1.48-.78-2.05-1.4-.6-.66-1.06-1.43-1.35-2.27-.34-1-.5-2.05-.48-3.11,0-.9.14-1.8.43-2.66.27-.79.7-1.52,1.25-2.14.56-.61,1.24-1.1,2-1.42.84-.36,1.74-.53,2.65-.52M169.03,17.31c-1.01-.06-1.99.31-2.72,1-.71.76-1.14,1.73-1.24,2.77h7.38c0-.52-.07-1.03-.23-1.52-.14-.44-.37-.84-.67-1.19-.3-.34-.67-.6-1.08-.78-.46-.19-.96-.28-1.46-.27"/><path id="n" class="bb" d="M177.65,29.36v-13.58h1.37c.19-.02.38.03.54.15.12.15.19.32.2.51l.16,2.12c.4-.86.99-1.62,1.72-2.22.98-.73,2.24-.97,3.43-.67.3.08.58.2.84.36l-.31,1.78c-.03.2-.21.35-.42.34-.2-.02-.39-.06-.58-.13-.35-.1-.72-.14-1.09-.13-.76-.03-1.5.23-2.09.72-.63.58-1.11,1.3-1.4,2.11v8.65h-2.39Z"/><path id="o" class="bb" d="M196.24,18.02c-.09.19-.29.31-.5.3-.16,0-.32-.06-.46-.15-.17-.1-.38-.21-.62-.33-.28-.14-.58-.25-.88-.34-.39-.11-.8-.16-1.21-.15-.37,0-.73.05-1.09.15-.3.09-.58.23-.82.42-.22.17-.4.38-.52.62-.12.24-.18.5-.18.77-.01.32.1.63.3.87.22.25.5.45.8.6.36.18.74.33,1.12.45.42.13.85.27,1.29.42s.87.31,1.29.49c.4.17.78.4,1.13.67.33.27.6.6.8.99.21.44.31.92.3,1.4,0,.6-.11,1.19-.34,1.74-.22.53-.56,1-.98,1.38-.47.41-1.02.72-1.61.92-.71.24-1.45.35-2.2.34-.88.01-1.75-.14-2.57-.46-.72-.28-1.38-.68-1.96-1.19l.56-.91c.06-.11.15-.2.26-.27.12-.07.25-.1.39-.09.19,0,.36.07.51.19.18.12.4.26.65.42.29.17.6.31.93.42.44.14.9.2,1.36.19.41,0,.83-.05,1.22-.18.32-.11.62-.27.87-.49.22-.19.4-.44.51-.71.11-.27.17-.56.17-.86.01-.34-.09-.67-.3-.93-.22-.26-.49-.48-.8-.63-.36-.19-.74-.34-1.13-.46-.42-.13-.86-.27-1.3-.41-.44-.14-.88-.31-1.3-.49-.41-.17-.79-.41-1.13-.69-.34-.28-.61-.63-.8-1.03-.21-.46-.32-.97-.3-1.48,0-.52.11-1.03.32-1.49.22-.48.54-.91.94-1.26.45-.38.96-.68,1.51-.86.66-.22,1.35-.33,2.05-.32.82-.01,1.64.13,2.41.42.68.26,1.31.66,1.84,1.16l-.54.88Z"/><path id="p" class="bb" d="M204.22,29.57c-.91.06-1.81-.27-2.47-.9-.62-.71-.93-1.64-.86-2.59v-8.31h-1.64c-.13,0-.26-.04-.36-.13-.11-.1-.16-.25-.15-.4v-.95l2.23-.28.55-4.2c.01-.13.08-.25.18-.33.1-.09.24-.13.37-.13h1.21v4.68h3.89v1.73h-3.89v8.15c-.04.46.11.92.41,1.27.28.28.67.43,1.07.42.22,0,.44-.03.65-.1.17-.06.32-.13.48-.22.13-.08.25-.15.34-.22.07-.06.16-.09.25-.1.14.01.27.1.34.23l.7,1.14c-.43.4-.94.7-1.49.9-.57.22-1.18.33-1.8.33"/><path id="q" class="bb" d="M208.33,15.77h1.88c.17,0,.34.04.48.15.12.09.21.21.26.35l2.6,8.74c.07.32.14.63.2.93s.12.6.16.9c.07-.3.15-.6.24-.9.09-.3.18-.61.28-.93l2.87-8.8c.04-.13.13-.25.24-.34.12-.09.27-.14.42-.13h1.03c.31-.01.59.18.68.47l2.8,8.8c.1.31.18.62.26.93s.15.6.22.9c.04-.3.1-.6.17-.92.07-.32.15-.62.23-.9l2.65-8.74c.04-.14.13-.27.26-.35.13-.1.28-.14.44-.14h1.8l-4.4,13.58h-1.89c-.23,0-.39-.15-.48-.46l-3-9.21c-.07-.2-.13-.41-.18-.62-.05-.21-.09-.42-.13-.62-.04.2-.09.42-.13.63-.04.21-.1.42-.17.63l-3.04,9.2c-.05.26-.28.46-.55.46h-1.8l-4.39-13.59Z"/><path id="r" class="bb" d="M236.14,15.56c.92-.01,1.83.16,2.69.5.77.31,1.47.8,2.04,1.41.58.64,1.01,1.39,1.29,2.21.31.93.46,1.91.45,2.89.01.99-.14,1.97-.45,2.9-.27.81-.71,1.56-1.29,2.2-.57.61-1.26,1.09-2.04,1.4-1.73.65-3.64.65-5.38,0-.78-.31-1.47-.79-2.04-1.4-.58-.64-1.02-1.39-1.3-2.2-.32-.93-.47-1.91-.46-2.9-.01-.98.14-1.96.46-2.89.28-.82.72-1.57,1.3-2.21.57-.61,1.27-1.09,2.04-1.41.85-.34,1.77-.51,2.69-.5M236.14,27.68c1.16.08,2.29-.43,3-1.35.72-1.12,1.07-2.43.99-3.76.08-1.33-.27-2.66-.99-3.78-.71-.93-1.84-1.43-3-1.35-.61-.01-1.21.11-1.77.35-.49.23-.92.57-1.25,1.01-.36.48-.61,1.03-.75,1.62-.17.71-.26,1.44-.25,2.17,0,.73.07,1.45.25,2.16.14.58.39,1.12.75,1.6.33.43.76.77,1.25,1,.56.24,1.16.36,1.77.35"/><path id="s" class="bb" d="M253.96,18.56h.98c.28.01.55-.03.81-.13.22-.1.42-.25.57-.44l6.4-7.24c.16-.19.35-.35.57-.48.22-.1.46-.15.7-.14h2.21l-7.32,8.27c-.17.18-.34.36-.53.52-.16.14-.34.26-.53.35.24.08.46.2.66.36.21.19.41.39.59.6l7.64,9.1h-2.25c-.14,0-.29-.01-.43-.04-.1-.02-.2-.06-.3-.11-.09-.05-.17-.1-.23-.17-.07-.07-.14-.15-.22-.23l-6.64-7.63c-.1-.11-.19-.2-.27-.27-.09-.08-.19-.14-.29-.19-.12-.06-.25-.1-.39-.11-.18-.02-.36-.04-.54-.03h-1.18v8.8h-2.59V10.14h2.59v8.42Z"/><path id="t" class="bb" d="M271.06,15.77v8.66c-.05.85.2,1.7.71,2.39.55.59,1.34.91,2.15.84.69,0,1.37-.17,1.97-.5.64-.36,1.22-.82,1.7-1.38v-10.01h2.39v13.58h-1.41c-.31.02-.59-.19-.64-.5l-.19-1.46c-.57.63-1.24,1.17-1.99,1.58-.78.41-1.64.62-2.52.6-.67.01-1.34-.11-1.97-.37-.55-.23-1.04-.59-1.43-1.04-.4-.47-.7-1.02-.87-1.62-.2-.68-.3-1.39-.29-2.1v-8.67h2.39Z"/><rect id="u" class="bb" x="284.17" y="9.61" width="2.39" height="19.75"/><path id="v" class="bb" d="M294.89,29.57c-.91.06-1.81-.27-2.47-.9-.62-.71-.93-1.64-.87-2.59v-8.31h-1.64c-.13,0-.26-.04-.36-.13-.11-.1-.16-.25-.15-.4v-.95l2.23-.28.55-4.2c.01-.13.08-.25.17-.33.11-.09.24-.13.38-.13h1.21v4.68h3.89v1.73h-3.89v8.15c-.04.46.11.92.41,1.27.29.28.67.43,1.07.42.22,0,.44-.03.65-.1.17-.06.32-.13.48-.22.13-.08.25-.15.34-.22.07-.06.16-.09.25-.1.14.01.27.1.34.23l.7,1.14c-.43.4-.94.7-1.49.9-.57.22-1.18.33-1.8.33"/><path id="w" class="bb" d="M302.84,15.77v8.66c-.05.85.2,1.7.71,2.39.55.59,1.34.91,2.15.84.69,0,1.37-.17,1.97-.5.64-.36,1.22-.82,1.7-1.38v-10.01h2.39v13.58h-1.42c-.31.02-.59-.19-.64-.5l-.19-1.46c-.57.63-1.24,1.17-1.98,1.58-.78.41-1.64.62-2.52.6-.67.01-1.34-.11-1.97-.37-.55-.23-1.04-.59-1.43-1.04-.4-.47-.69-1.03-.86-1.62-.2-.68-.3-1.39-.29-2.1v-8.67h2.39Z"/><path id="x" class="bb" d="M315.69,29.36v-13.58h1.37c.19-.02.38.03.54.15.12.15.19.32.2.51l.16,2.12c.4-.86.99-1.62,1.73-2.22.98-.73,2.24-.97,3.42-.67.3.08.58.2.85.36l-.31,1.78c-.03.2-.21.35-.42.34-.2-.01-.39-.06-.58-.13-.35-.1-.72-.14-1.09-.13-.76-.02-1.5.23-2.08.72-.63.58-1.11,1.3-1.4,2.11v8.65h-2.39Z"/><path id="y" class="bb" d="M330.48,33.37c-.07.16-.17.31-.3.43-.16.12-.36.18-.56.16h-1.77l2.48-5.39-5.61-12.79h2.07c.17-.01.35.04.48.15.11.09.2.21.26.34l3.63,8.55c.08.2.15.4.21.59.06.2.11.4.15.6.06-.2.13-.41.19-.6s.13-.4.21-.6l3.53-8.54c.05-.14.15-.27.27-.35.12-.09.27-.14.42-.14h1.9l-7.57,17.59Z"/><path id="z" class="bb" d="M91.73,41.49c0,.22-.05.45-.14.65-.09.2-.22.38-.38.54-.16.16-.34.28-.54.37-.21.09-.43.14-.66.13-.22,0-.44-.04-.65-.13-.4-.18-.72-.5-.91-.9-.09-.21-.14-.43-.13-.65,0-.23.05-.45.13-.66.09-.21.21-.39.37-.55.15-.16.34-.28.54-.37.2-.09.43-.14.65-.13.23,0,.45.04.66.13.2.09.39.21.54.37.16.16.29.34.38.55.09.21.14.43.14.66M91.19,59.35h-2.39v-13.59h2.39v13.59Z"/><path id="aa" class="bb" d="M117.61,49.74c.02,1.34-.21,2.67-.68,3.93-.85,2.29-2.64,4.11-4.92,4.98-1.23.47-2.54.71-3.86.69h-7.19v-19.22h7.19c1.32-.02,2.63.22,3.86.69,1.12.44,2.14,1.1,2.99,1.96.85.87,1.5,1.9,1.93,3.04.47,1.26.7,2.59.68,3.93M114.94,49.74c.02-1.07-.15-2.14-.48-3.17-.29-.87-.75-1.68-1.37-2.36-.59-.65-1.33-1.15-2.15-1.47-.89-.35-1.84-.52-2.8-.51h-4.57v15h4.57c.96.01,1.91-.16,2.8-.51.82-.32,1.55-.83,2.15-1.47.61-.68,1.08-1.48,1.37-2.35.34-1.02.5-2.09.48-3.17"/><path id="ab" class="bb" d="M130.25,46.78c0,.17-.03.33-.09.49-.06.15-.14.29-.24.42l-7.35,9.79h7.42v1.86h-10.23v-.99c0-.14.03-.28.09-.41.06-.16.14-.31.25-.45l7.39-9.85h-7.31v-1.88h10.08v1.02Z"/><path id="ac" class="bb" d="M136.35,41.49c0,.22-.05.45-.14.65-.09.2-.22.38-.38.54-.16.16-.34.28-.54.37-.21.09-.43.14-.66.13-.22,0-.45-.04-.65-.13-.4-.18-.72-.5-.9-.9-.09-.21-.14-.43-.13-.65,0-.23.04-.45.13-.66.09-.21.21-.39.37-.55.15-.16.34-.28.54-.37.21-.09.43-.14.65-.13.23,0,.45.04.66.13.2.09.39.21.54.37.16.16.28.34.38.55.09.21.14.43.14.66M135.82,59.35h-2.39v-13.59h2.39v13.59Z"/><path id="ad" class="bb" d="M145.4,45.54c.77,0,1.53.13,2.25.41.67.26,1.28.66,1.78,1.18.52.54.92,1.19,1.17,1.9.29.83.44,1.7.42,2.58.02.26-.02.51-.12.75-.11.14-.28.21-.46.19h-9.04c0,.76.12,1.52.35,2.24.19.58.49,1.12.89,1.59.37.42.83.75,1.34.95.55.22,1.15.33,1.74.32.52.01,1.05-.06,1.55-.21.38-.12.76-.27,1.12-.45.27-.14.53-.28.79-.45.16-.12.35-.19.54-.21.18,0,.35.08.46.23l.67.87c-.3.36-.66.68-1.06.93-.41.27-.86.48-1.32.65-.47.17-.96.3-1.46.38-.49.08-.99.13-1.49.13-.89,0-1.77-.15-2.59-.48-.78-.31-1.48-.78-2.05-1.4-.6-.66-1.06-1.43-1.35-2.27-.34-1-.5-2.05-.48-3.11,0-.9.14-1.8.43-2.66.27-.79.7-1.51,1.25-2.13.56-.61,1.24-1.1,2-1.42.84-.36,1.74-.53,2.65-.52M145.46,47.31c-1.01-.05-1.99.31-2.72,1-.71.76-1.14,1.74-1.24,2.77h7.39c0-.52-.07-1.03-.23-1.52-.14-.44-.37-.85-.67-1.19-.3-.34-.67-.6-1.08-.78-.46-.19-.96-.28-1.46-.28"/><path id="ae" class="bb" d="M163.64,59.34c-.31.02-.59-.19-.64-.5l-.22-1.65c-.55.68-1.23,1.26-1.99,1.7-.79.43-1.67.65-2.57.64-.73,0-1.45-.14-2.12-.45-.64-.3-1.2-.76-1.62-1.32-.48-.65-.83-1.39-1.03-2.17-.26-.98-.38-1.98-.36-2.99,0-.95.13-1.89.4-2.8.24-.81.64-1.58,1.16-2.25,1.03-1.32,2.63-2.08,4.31-2.04.73-.02,1.46.12,2.13.42.6.29,1.14.69,1.58,1.19v-7.53h2.39v19.75h-1.42ZM159.01,57.6c.72.02,1.43-.17,2.04-.54.63-.4,1.18-.91,1.62-1.52v-6.57c-.37-.53-.86-.96-1.44-1.24-.55-.24-1.14-.36-1.74-.36-1.14-.06-2.23.45-2.92,1.35-.75,1.14-1.1,2.5-1.02,3.86-.01.76.06,1.53.23,2.27.12.56.35,1.09.67,1.56.27.39.65.7,1.09.89.47.19.97.29,1.48.28"/><path id="af" class="bb" d="M178.55,46.78c0,.17-.03.33-.09.49-.06.15-.14.29-.24.42l-7.35,9.79h7.41v1.86h-10.23v-.99c0-.14.03-.28.09-.41.06-.16.14-.31.25-.45l7.39-9.85h-7.31v-1.88h10.08v1.02Z"/><path id="ag" class="bb" d="M184.65,41.49c0,.22-.05.45-.14.65-.09.2-.22.38-.38.54-.16.16-.34.28-.54.37-.21.09-.43.14-.66.13-.22,0-.45-.04-.65-.13-.4-.18-.72-.5-.9-.9-.09-.21-.14-.43-.13-.65,0-.23.04-.45.13-.66.09-.2.21-.39.37-.55.15-.16.34-.28.54-.37.21-.09.43-.14.65-.13.23,0,.45.04.66.13.2.09.39.21.54.37.16.16.29.34.38.55.09.21.14.43.14.66M184.12,59.35h-2.39v-13.59h2.39v13.59Z"/><path id="ah" class="bb" d="M197.59,48.17c-.06.09-.13.16-.21.23-.09.06-.2.09-.31.08-.16,0-.31-.07-.43-.17-.19-.13-.39-.26-.6-.37-.28-.15-.57-.27-.88-.37-1-.28-2.07-.21-3.02.19-.5.23-.94.59-1.28,1.03-.36.49-.63,1.04-.78,1.62-.18.7-.27,1.41-.26,2.13-.01.74.08,1.48.28,2.19.16.58.43,1.13.79,1.61.33.42.75.76,1.24.99.52.24,1.08.35,1.64.34.49.01.97-.06,1.43-.21.33-.12.65-.27.94-.46.21-.14.42-.3.62-.46.13-.13.3-.2.48-.21.18-.01.36.07.46.23l.67.87c-.58.72-1.35,1.27-2.21,1.59-.9.34-1.84.51-2.8.5-.81,0-1.62-.15-2.37-.47-.73-.31-1.37-.77-1.9-1.36-.56-.64-.99-1.38-1.27-2.19-.32-.95-.48-1.96-.46-2.96,0-.95.13-1.9.42-2.8.26-.82.68-1.57,1.23-2.22.55-.63,1.23-1.12,2-1.45.87-.36,1.8-.54,2.74-.52.86-.02,1.72.14,2.52.46.73.3,1.39.75,1.95,1.31l-.62.86Z"/><path id="ai" class="bb" d="M204.97,59.56c-.91.06-1.81-.27-2.47-.9-.62-.71-.93-1.64-.87-2.59v-8.31h-1.64c-.13,0-.26-.04-.36-.13-.11-.1-.16-.25-.15-.4v-.95l2.23-.28.55-4.2c.01-.13.08-.24.18-.33.1-.09.24-.13.38-.13h1.21v4.68h3.89v1.73h-3.89v8.15c-.04.46.11.92.41,1.27.29.28.67.43,1.07.42.22,0,.44-.03.65-.1.17-.06.32-.13.48-.22.13-.08.25-.15.34-.22.07-.06.16-.09.25-.1.14.01.27.1.34.23l.7,1.14c-.43.4-.94.71-1.49.91-.58.22-1.19.33-1.8.33"/><path id="aj" class="bb" d="M209.08,45.76h1.88c.17,0,.34.04.48.15.12.09.21.21.26.35l2.6,8.74c.07.32.14.63.2.93s.12.6.16.9c.07-.3.15-.6.24-.9.09-.3.18-.61.28-.93l2.87-8.8c.04-.13.13-.25.24-.34.12-.09.27-.14.42-.13h1.03c.31-.01.59.18.68.47l2.8,8.8c.1.31.18.62.26.92s.15.6.22.9c.04-.3.1-.6.17-.92.07-.32.15-.62.23-.9l2.66-8.74c.04-.14.13-.27.26-.36.13-.1.28-.14.44-.14h1.8l-4.4,13.58h-1.9c-.23,0-.39-.15-.48-.46l-3-9.21c-.07-.2-.13-.41-.18-.62-.04-.21-.09-.42-.13-.62-.04.21-.09.42-.13.63-.04.21-.1.42-.17.63l-3.04,9.2c-.05.26-.28.46-.55.46h-1.8l-4.4-13.58Z"/><path id="ak" class="bb" d="M241.37,59.34h-1.06c-.19,0-.39-.03-.56-.11-.16-.1-.27-.27-.28-.46l-.27-1.26c-.36.32-.71.61-1.05.87-.33.25-.69.47-1.07.64-.38.18-.79.31-1.2.4-.47.09-.94.14-1.41.13-.5,0-1-.07-1.48-.22-.44-.14-.85-.36-1.2-.67-.35-.31-.63-.69-.81-1.12-.21-.51-.31-1.06-.3-1.61,0-.55.16-1.09.44-1.55.36-.56.85-1.01,1.43-1.33.81-.44,1.68-.76,2.58-.95,1.28-.27,2.59-.39,3.9-.37v-1.07c.06-.86-.18-1.71-.68-2.41-.5-.57-1.24-.87-2-.82-.5-.01-1,.06-1.47.22-.36.13-.71.3-1.03.5-.29.18-.54.35-.75.5-.18.14-.4.22-.62.22-.15,0-.3-.04-.42-.13-.12-.08-.22-.19-.29-.32l-.43-.76c.7-.69,1.52-1.24,2.43-1.62.92-.37,1.9-.55,2.88-.54.69-.01,1.38.12,2.02.38.57.23,1.08.59,1.49,1.04.41.47.73,1.02.91,1.62.21.68.31,1.38.31,2.09v8.68ZM235.18,57.88c.39,0,.77-.04,1.15-.13.34-.08.67-.21.99-.36.31-.16.61-.35.88-.57.29-.23.57-.49.83-.76v-2.8c-.94-.01-1.87.06-2.8.21-.65.1-1.28.29-1.88.55-.41.17-.78.45-1.05.8-.22.3-.33.66-.33,1.03,0,.32.05.64.17.93.11.25.27.47.47.64.2.17.44.29.7.36.28.08.58.12.87.11"/><path id="al" class="bb" d="M252.4,40.21c.15.09.28.21.38.36l11.13,14.48c-.03-.23-.04-.46-.05-.68s-.01-.43-.01-.64v-13.61h2.28v19.22h-1.31c-.18,0-.36-.03-.52-.11-.16-.09-.3-.21-.41-.36l-11.12-14.47c.02.22.03.44.04.66s.01.41.01.59v13.69h-2.28v-19.22h1.34c.18-.01.35.02.51.09"/><path id="am" class="bb" d="M280.42,59.34h-1.06c-.19,0-.39-.03-.56-.11-.16-.1-.27-.27-.28-.46l-.27-1.26c-.36.32-.71.61-1.05.87-.33.25-.69.47-1.07.64-.38.18-.79.31-1.2.4-.47.09-.94.14-1.41.13-.5,0-1-.07-1.48-.22-.44-.14-.85-.36-1.2-.67-.35-.31-.63-.69-.81-1.12-.21-.51-.31-1.06-.3-1.61,0-.55.16-1.09.44-1.55.36-.56.85-1.01,1.43-1.33.81-.44,1.68-.76,2.58-.95,1.28-.27,2.59-.39,3.9-.37v-1.07c.06-.86-.18-1.71-.68-2.41-.5-.57-1.24-.87-2-.82-.5-.01-1,.06-1.47.22-.36.13-.71.3-1.03.5-.29.18-.54.35-.75.5-.18.14-.4.22-.62.22-.15,0-.3-.04-.42-.13-.12-.08-.22-.19-.29-.32l-.43-.76c.7-.69,1.52-1.24,2.43-1.62.92-.37,1.9-.55,2.88-.54.69-.01,1.38.12,2.02.38.57.23,1.08.59,1.49,1.04.41.47.73,1.02.91,1.62.21.68.31,1.38.31,2.09v8.68ZM274.22,57.88c.39,0,.77-.04,1.15-.13.34-.08.67-.21.99-.36.31-.16.61-.35.88-.57.29-.23.57-.49.83-.76v-2.8c-.94-.01-1.87.06-2.8.21-.65.1-1.28.29-1.88.55-.41.17-.78.45-1.05.8-.22.3-.33.66-.33,1.03,0,.32.05.64.17.93.11.25.27.47.47.64.2.17.44.29.7.36.28.08.58.12.87.11"/><path id="an" class="bb" d="M284.04,59.34v-13.58h1.37c.19-.02.38.03.54.15.12.15.19.32.2.51l.16,2.12c.4-.86.99-1.62,1.73-2.22.98-.73,2.24-.97,3.43-.67.3.08.58.2.85.36l-.31,1.78c-.03.2-.21.35-.41.33-.2-.01-.39-.06-.58-.13-.35-.1-.72-.14-1.09-.13-.76-.03-1.5.23-2.09.72-.62.58-1.1,1.3-1.4,2.1v8.65h-2.39Z"/><path id="ao" class="bb" d="M300.35,45.54c.92-.01,1.83.16,2.69.5.77.31,1.47.79,2.04,1.41.58.64,1.01,1.39,1.29,2.21.6,1.88.6,3.9,0,5.79-.27.81-.71,1.56-1.29,2.2-.57.61-1.26,1.09-2.04,1.4-1.73.65-3.64.65-5.38,0-.78-.31-1.47-.79-2.04-1.4-.58-.64-1.02-1.39-1.3-2.2-.61-1.88-.61-3.9,0-5.79.28-.82.72-1.57,1.3-2.21.57-.61,1.27-1.09,2.04-1.41.85-.34,1.77-.51,2.69-.5M300.35,57.67c1.16.08,2.29-.43,3-1.35.72-1.12,1.07-2.43.99-3.76.08-1.33-.27-2.66-.99-3.78-.71-.93-1.84-1.43-3-1.35-.61-.01-1.21.1-1.77.35-.49.23-.92.57-1.25,1.01-.36.48-.61,1.03-.75,1.62-.33,1.42-.33,2.9,0,4.32.14.58.39,1.12.75,1.6.33.43.76.77,1.25,1,.56.24,1.16.36,1.77.35"/><path id="ap" class="bb" d="M319.32,59.34c-.31.02-.59-.19-.64-.5l-.21-1.65c-.55.68-1.23,1.26-1.99,1.7-.79.43-1.67.65-2.57.64-.73,0-1.45-.14-2.12-.45-.64-.3-1.2-.76-1.62-1.32-.48-.65-.83-1.39-1.03-2.17-.26-.98-.38-1.98-.36-2.99,0-.95.13-1.89.4-2.8.24-.81.64-1.58,1.16-2.25,1.03-1.32,2.63-2.08,4.31-2.04.73-.02,1.46.12,2.13.42.6.29,1.14.69,1.58,1.19v-7.53h2.39v19.75h-1.42ZM314.69,57.6c.72.02,1.43-.17,2.05-.54.63-.4,1.18-.91,1.62-1.52v-6.57c-.37-.53-.86-.96-1.44-1.24-.55-.24-1.14-.36-1.74-.36-1.14-.06-2.23.45-2.92,1.35-.75,1.14-1.11,2.5-1.02,3.86-.01.76.06,1.53.23,2.27.12.56.35,1.09.67,1.56.27.39.65.7,1.08.89.47.19.97.29,1.48.28"/><path id="aq" class="bb" d="M330.25,45.54c.92-.01,1.83.16,2.69.5.77.31,1.47.8,2.04,1.41.58.64,1.01,1.39,1.29,2.21.6,1.88.6,3.9,0,5.79-.27.81-.71,1.56-1.29,2.2-.57.61-1.26,1.09-2.04,1.4-1.73.65-3.64.65-5.38,0-.78-.31-1.47-.79-2.05-1.4-.58-.64-1.02-1.39-1.3-2.2-.61-1.88-.61-3.9,0-5.79.28-.82.72-1.57,1.3-2.21.57-.61,1.27-1.09,2.05-1.41.85-.34,1.77-.51,2.69-.5M330.25,57.67c1.16.08,2.29-.43,3-1.35.72-1.12,1.07-2.43.99-3.76.08-1.33-.27-2.66-.99-3.78-.71-.93-1.84-1.43-3-1.35-.61-.01-1.21.1-1.77.35-.49.23-.92.57-1.25,1.01-.36.48-.61,1.03-.75,1.62-.33,1.42-.33,2.9,0,4.32.14.58.39,1.12.75,1.6.33.43.76.77,1.25,1,.56.24,1.16.36,1.77.35"/><path id="ar" class="bb" d="M337.89,45.76h1.88c.17,0,.34.04.48.15.12.09.21.21.26.35l2.6,8.74c.07.32.14.63.2.93s.11.6.16.9c.07-.3.15-.6.24-.9.09-.3.18-.61.28-.93l2.87-8.8c.04-.13.13-.25.24-.34.12-.09.27-.14.42-.13h1.03c.31-.01.59.18.68.47l2.8,8.8c.1.31.18.62.26.92s.15.6.22.9c.04-.3.1-.6.17-.92s.15-.62.23-.9l2.65-8.74c.04-.14.13-.27.26-.36.13-.1.28-.14.44-.14h1.8l-4.4,13.58h-1.89c-.23,0-.39-.15-.48-.46l-3-9.21c-.07-.2-.13-.41-.17-.62-.05-.21-.09-.42-.13-.62-.04.21-.09.42-.13.63-.04.21-.1.42-.17.63l-3.05,9.2c-.05.26-.28.46-.55.46h-1.8l-4.39-13.58Z"/><path id="as" class="bb" d="M365.58,45.54c.77,0,1.54.13,2.25.41.67.26,1.28.66,1.78,1.18.52.54.92,1.19,1.17,1.9.29.83.44,1.7.42,2.58.02.26-.02.51-.12.75-.11.14-.28.21-.46.19h-9.04c0,.76.12,1.52.35,2.24.19.58.49,1.12.89,1.59.37.42.83.74,1.34.95.55.22,1.15.33,1.74.32.52.01,1.05-.06,1.55-.21.38-.12.76-.27,1.12-.45.27-.13.53-.28.79-.45.16-.12.35-.19.54-.21.18,0,.35.08.46.23l.67.87c-.3.36-.66.68-1.06.93-.41.27-.86.48-1.32.65-.47.17-.96.3-1.45.38-.49.08-.99.13-1.49.13-.89,0-1.77-.15-2.59-.48-.78-.31-1.48-.78-2.05-1.4-.6-.66-1.06-1.43-1.35-2.27-.34-1-.5-2.05-.48-3.11,0-.9.14-1.8.44-2.66.27-.79.7-1.51,1.25-2.13.56-.61,1.24-1.1,2-1.42.84-.36,1.74-.53,2.65-.52M365.64,47.31c-1.01-.05-1.99.31-2.72,1-.71.76-1.14,1.74-1.23,2.77h7.39c0-.52-.07-1.03-.23-1.52-.14-.44-.37-.85-.67-1.19-.3-.34-.67-.6-1.08-.78-.46-.19-.96-.28-1.45-.28"/><path id="at" class="bb" d="M378.83,45.53c.56,0,1.11.06,1.66.19.49.12.96.31,1.4.57h3.69v.89c0,.3-.19.48-.56.56l-1.54.22c.58,1.18.61,2.55.07,3.75-.25.53-.61,1.01-1.06,1.39-.47.4-1.02.7-1.61.89-.66.21-1.35.31-2.05.31-.61,0-1.21-.07-1.8-.23-.25.16-.48.36-.65.6-.14.18-.21.4-.22.62-.02.3.13.59.39.75.32.19.67.32,1.03.37.48.08.97.12,1.46.11h1.67c.56,0,1.12.05,1.67.15.51.09,1,.25,1.46.49.42.22.78.54,1.03.94.28.47.41,1,.39,1.55,0,.6-.15,1.19-.44,1.71-.31.57-.74,1.08-1.26,1.47-.6.46-1.28.81-2,1.03-.86.27-1.76.4-2.67.39-.88.01-1.75-.09-2.61-.3-.66-.16-1.29-.43-1.86-.79-.45-.29-.83-.68-1.11-1.15-.24-.41-.37-.88-.37-1.36-.02-.63.21-1.24.64-1.71.48-.51,1.08-.89,1.75-1.12-.36-.16-.68-.41-.92-.72-.24-.35-.36-.77-.34-1.2,0-.21.04-.41.11-.61.08-.22.19-.43.33-.62.16-.22.34-.42.54-.59.23-.2.48-.37.75-.5-.65-.35-1.19-.87-1.58-1.49-.39-.66-.59-1.41-.57-2.18,0-.62.12-1.24.38-1.8.25-.53.61-1.01,1.07-1.38.48-.39,1.03-.69,1.63-.88.67-.21,1.37-.32,2.07-.31M383.06,60.03c.01-.3-.09-.6-.28-.83-.21-.22-.47-.39-.77-.49-.36-.12-.73-.21-1.11-.25-.44-.06-.88-.08-1.33-.08h-1.42c-.47,0-.93-.06-1.38-.18-.47.21-.89.51-1.24.89-.31.34-.48.79-.48,1.25,0,.3.08.59.23.85.18.29.42.52.72.69.38.21.79.37,1.21.46.57.12,1.14.18,1.72.17.58,0,1.16-.05,1.73-.18.46-.1.89-.26,1.29-.5.33-.19.61-.46.81-.78.19-.3.28-.65.28-1M378.83,52.71c.44,0,.87-.06,1.28-.2.35-.12.66-.31.93-.56.25-.24.44-.54.56-.87.13-.35.19-.73.19-1.11.04-.74-.24-1.46-.76-1.99-1.3-.98-3.1-.98-4.4,0-.52.53-.79,1.25-.76,1.99,0,.38.06.75.2,1.11.12.33.32.62.57.87.27.25.58.44.93.56.41.14.83.21,1.26.2"/><path id="au" class="bb" d="M393.46,45.54c.92-.01,1.83.16,2.69.5.77.31,1.47.8,2.04,1.41.58.64,1.01,1.39,1.29,2.21.6,1.88.6,3.9,0,5.79-.27.81-.71,1.56-1.29,2.2-.57.61-1.26,1.09-2.04,1.4-1.73.65-3.64.65-5.38,0-.78-.31-1.47-.79-2.05-1.4-.58-.64-1.02-1.39-1.3-2.2-.61-1.88-.61-3.9,0-5.79.28-.82.72-1.57,1.3-2.21.57-.61,1.27-1.09,2.05-1.41.85-.34,1.77-.51,2.69-.5M393.46,57.67c1.16.08,2.29-.43,3-1.35.72-1.12,1.07-2.43.99-3.76.08-1.33-.27-2.66-.99-3.78-.71-.93-1.84-1.43-3-1.35-.61-.01-1.21.1-1.77.35-.49.23-.92.57-1.25,1.01-.36.48-.61,1.03-.75,1.62-.33,1.42-.33,2.9,0,4.32.14.58.39,1.12.75,1.6.33.43.76.77,1.25,1,.56.24,1.16.36,1.77.35"/><path id="av" class="bb" d="M72.15,38.74c.78.12,1.57.18,2.36.18,1.29.02,2.58-.16,3.81-.55l.47-.17-.19-.46c-.58-1.42-2.18-2.91-4.69-4.37.81-.12,1.6-.34,2.35-.65,1.1-.37,1.94-1.28,2.23-2.4.04-.29.07-.58.07-.87,0,0-.53.23-.75.34-.48.23-2.16.48-5.42.48h-.85c1.23-.23,2.44-.58,3.61-1.04,1.32-.57,2.55-1.33,3.65-2.27.14-.11.52-.46.52-.46,0,0-.43-.26-.59-.34-1.46-.76-3.03-1.31-4.64-1.62.51-.3,1-.63,1.46-.99,1.09-.66,1.71-1.89,1.58-3.16-.04-.18-.21-.67-.21-.67,0,0-.38.26-.54.37-1.78,1.01-3.66,1.84-5.6,2.49,1.88-1.18,4.22-2.99,5.16-5.03.06-.13.22-.53.22-.53-.68-.2-1.38-.3-2.09-.31-.82.01-1.64.09-2.44.23.17-.19.32-.38.46-.56.89-.93,1.14-2.3.65-3.48-.13-.21-.28-.4-.44-.58,0,0-.27.33-.39.5-.74.87-1.61,1.61-2.57,2.22,1.07-1.23,1.79-2.73,2.06-4.34.02-.13.08-.52.08-.52-.3-.04-.6-.06-.9-.06-1.74.07-3.45.51-5,1.3,1.14-1.2,2.02-2.63,2.57-4.2.05-.17.14-.62.14-.62,0,0-.42,0-.64,0-2.94.31-5.78,1.21-8.35,2.65-2.05,1.11-3.97,2.43-5.75,3.94-3.45,2.94-5.3,6.84-4.71,9.93.34,1.74,1.46,3.22,3.04,4.03l.04.32c.14.84,0,1.71-.4,2.46-.76,1.14-2.26,1.35-3.82,1.38l-.1-.22c-.91-2.05-1.54-4.22-1.87-6.44.09-1.82.31-3.64.67-5.43.32-2.16.65-4.38-.24-5.85.35-.2.63-.49.83-.84.35-.64.3-1.42-.11-2.01l-.26-.4-.4.26s-.08.05-.13.08c.02-.06.04-.12.05-.19.1-.61-.19-1.21-.71-1.53l-.25-.15-.25.15c-.22.13-.46.21-.71.26.59-1.26,1.29-2.46,2.11-3.58.49-.73.96-1.41,1.32-2.06l.49-.88c-.58.17-1.18.27-1.79.28-.71-.07-1.41.17-1.94.65-.03.04-.06.09-.08.14-.17-.09-.36-.13-.55-.13-.32,0-.63.12-.88.33-.24-.69-.92-1.13-1.64-1.07-.1-.69-.42-1.33-.92-1.82-.11-.13-.67-.87-.67-.87,0,0-.56.74-.67.87-.5.49-.82,1.13-.92,1.82-.73-.06-1.4.38-1.64,1.07-.24-.21-.55-.33-.88-.33-.19,0-.38.04-.56.13-.02-.05-.05-.1-.08-.14-.53-.48-1.23-.71-1.94-.65-.61-.02-1.21-.11-1.79-.28l.49.88c.36.65.82,1.34,1.32,2.06.91,1.22,1.66,2.55,2.26,3.95-.21.21-.34.49-.36.79h-.39c-1.13-.13-2.22.48-2.69,1.52-.4,1.06-.21,2.24.48,3.13l.4.4.33-.46c.21-.27.53-.43.87-.41.39,0,.76.14,1.06.38l.17.14.22-.04c.21-.04.42-.06.63-.06.52,0,1.03.14,1.47.42-.14-.04-.28-.06-.42-.08-.16-.02-.32-.02-.48-.02-1,.04-1.97.32-2.82.82-.17.09-.33.17-.49.24-.14.06-.3.09-.45.08-.35-.01-.7-.1-1.02-.24l-.51-.24-.16.54c-.13.42-.06.88.21,1.24.38.44.93.68,1.51.65.26,0,.52-.04.78-.1.44-.11.86-.28,1.26-.5,0,.14.02.28.07.42l.18.48.47-.21c.44-.19.9-.3,1.38-.32.07,0,.13,0,.19.01.1.01.21.03.31.05l.06.06c.44.36.66.92.58,1.48-.16,1.51-1.83,4.03-2.88,5.09-1.24,1.25-2.17,2.78-2.7,4.46-.2.66-.49,1.29-.85,1.87l-.25.35c-1.49-.04-2.9-.27-3.62-1.37-.4-.76-.54-1.62-.4-2.46l.04-.32c1.58-.8,2.7-2.29,3.04-4.03.59-3.09-1.26-6.99-4.71-9.93-1.77-1.51-3.7-2.83-5.75-3.95-2.57-1.44-5.42-2.35-8.35-2.65-.22-.02-.64,0-.64,0,0,0,.09.46.14.62.55,1.57,1.42,3,2.56,4.2-1.55-.79-3.26-1.23-5-1.3-.3,0-.6.03-.9.06,0,0,.05.39.08.52.27,1.61.98,3.11,2.05,4.34-.96-.61-1.83-1.35-2.57-2.22-.12-.17-.39-.5-.39-.5-.17.18-.32.37-.45.58-.5,1.19-.24,2.55.65,3.48.14.18.29.36.46.56-.81-.14-1.62-.22-2.44-.23-.71.01-1.41.12-2.09.31,0,0,.16.4.22.53.94,2.03,3.29,3.85,5.16,5.03-1.94-.65-3.82-1.48-5.6-2.49-.15-.11-.53-.37-.53-.37,0,0-.18.48-.22.67-.13,1.27.49,2.5,1.58,3.16.47.36.96.69,1.46.99-1.62.32-3.18.86-4.64,1.63-.16.08-.59.34-.59.34,0,0,.37.34.52.46,1.09.94,2.32,1.7,3.65,2.27,1.17.46,2.38.81,3.61,1.04h-.85c-3.26,0-4.94-.25-5.42-.48-.22-.11-.75-.34-.75-.34,0,.29.03.58.07.87.29,1.12,1.13,2.03,2.23,2.4.75.31,1.54.53,2.35.65-2.5,1.46-4.11,2.95-4.69,4.37l-.19.47.47.17c1.23.39,2.52.57,3.81.55.79,0,1.58-.06,2.36-.18-2.56,1.76-4.62,2.76-5.83,2.81l-1.26.05.97.8c.93.76,2.11,1.16,3.31,1.14,1.58-.07,3.13-.47,4.55-1.17-.86,1.15-1.61,2.38-2.25,3.67-1.09,2.16-1.79,4.5-2.07,6.9l-.08.7.68-.19c3.82-.92,7.18-3.19,9.46-6.39-2.1,4.07-4.63,8.89-6.03,9.58l-1.39.68,1.53.22c.38.06.77.09,1.15.09,1.31.02,2.58-.5,3.5-1.43,1.42-1.52,2.54-3.29,3.31-5.23.06-.13.14-.33.23-.56-.08.4-.16.79-.23,1.19-.73,3.98-.75,6.85-.06,8.76l.23.63.52-.41c2.02-1.6,3.62-3.65,4.66-6-.14.67-.26,1.23-.35,1.6l-.23.94.89-.38c1.32-.57,3.12-2.42,4.41-7.88.16.36.36.71.58,1.03l.3.41.39-.32c.79-.76,1.43-1.67,1.88-2.68.74-1.6,1.29-3.28,1.65-5,1.04.14,2.1.01,3.08-.37.21.75.39,1.39.46,1.62-.15,0-.3-.01-.44-.01-3.01,0-3.66,1.89-4.1,3.14-.88,2.53-4.14,9.52-8.68,12.51.97.76,2.18,1.15,3.41,1.11-1.3,1.76-3.89,5.06-6.29,7.73-.15.14-.35.21-.55.19-.73-.06-1.44-.23-2.13-.49-.8-.25-1.64-.37-2.48-.38-.32-.84-1.13-1.41-2.04-1.42-.6,0-1.18.24-1.59.68-.28.3-.46.68-.53,1.08-.34-.08-.68.09-.83.4-.08.15-.11.33-.09.5h0c-.45.35-.71.88-.71,1.45.04.72.4,1.38.99,1.8l.51.4.23-.6c.22-.48.56-.9.98-1.23.22.04.44.06.66.06.65.02,1.3-.2,1.8-.61.64.38,1.33.65,2.06.8-.28.12-.57.21-.87.28-.39.11-.76.27-1.1.49-.38-.31-.86-.48-1.36-.48-1.2,0-2.17.98-2.17,2.18,0,.22.03.44.1.65,0,.02.02.05.03.07-.12.11-.2.25-.23.41-.06.39.12.77.46.97-.12.55.02,1.12.39,1.55.46.49,1.1.76,1.77.73.3,0,.86-.05.86-.05l-.23-.6c-.15-.46-.18-.95-.1-1.43.67-.31,1.16-.91,1.33-1.63,1.12-.16,2.15-.68,2.94-1.48,0,0-.45.68-.67,1.05-.06.11-.13.22-.2.33-.06,0-.11,0-.17,0-.84-.03-1.61.45-1.94,1.22-.35.73-.27,1.59.22,2.23.04.05.08.09.13.13-.1.13-.16.3-.15.46.01.37.26.7.61.81.06,1.03.94,1.81,1.97,1.75,0,0,0,0,.01,0,.49-.03.98-.13,1.44-.31l-.36-.54c-.27-.43-.42-.93-.43-1.44.78-.67,1.06-1.76.7-2.73.64-.67,1.15-1.45,1.52-2.3l.12-.24c.65.15,1.32.22,1.99.22.2,0,.39,0,.55-.02.15.53.49.99.96,1.28.01.5-.09.99-.29,1.44l-.3.53c.4.13.82.21,1.24.25.57.02,1.12-.19,1.53-.59.34-.36.52-.84.51-1.34.41-.1.69-.46.68-.88,0-.19-.08-.37-.2-.51.39-.6.44-1.35.12-1.99-.38-.77-1.15-1.27-2.01-1.28-.41.01-.82.12-1.18.31-.2.11-.43.18-.66.21-.04,0-.07,0-.11,0-.14-.42-.04-.88.26-1.2.67-.74,3.55-3.19,5.88-5.16.49-.41.92-.78,1.31-1.12.66.92,1.64,1.56,2.75,1.79.22-3.51,1.41-6.9,3.45-9.77-.11,2.32-.69,4.59-1.69,6.69l-.59,1.08,1.17-.4c.5-.17.96-.44,1.34-.8-.41,2.19-1.41,4.22-2.71,4.22-.38-.02-.75-.15-1.05-.39l-.53-.37-.2.61c-.33.78-.24,1.68.24,2.38.48.63,1.24.99,2.03.97.61,0,1.21-.13,1.77-.37-1.17,1.45-3.08,2.77-4.59,2.77-.23.02-.46-.06-.61-.24-.25-.45-.32-.98-.19-1.48l.12-.64-.65.07c-.66.12-1.27.46-1.71.97-.56.56-.88,1.32-.91,2.11-.03.89.28,1.76.86,2.43.12.13.26.26.41.37-1.08.54-1.77,1.65-1.77,2.86.01,1.14.56,2.2,1.48,2.88.85.66,1.89,1.01,2.97,1.02,1.56.03,3.08-.47,4.32-1.4.66-.51,1.24-1.12,1.73-1.79-.02,2.36.51,4.69,1.55,6.81l.43.83.43-.83c1.04-2.12,1.57-4.45,1.55-6.81.49.68,1.07,1.28,1.73,1.79,1.25.93,2.77,1.43,4.32,1.4,1.07,0,2.12-.37,2.97-1.02.92-.67,1.46-1.74,1.47-2.88,0-1.21-.69-2.32-1.77-2.86.15-.11.28-.23.41-.37.59-.67.9-1.54.86-2.43-.02-.79-.35-1.55-.91-2.11-.44-.51-1.05-.85-1.71-.97l-.65-.07.12.64c.13.5.06,1.03-.19,1.48-.15.17-.38.26-.61.24-1.52,0-3.42-1.32-4.59-2.77.56.25,1.16.37,1.77.37.79.02,1.54-.34,2.03-.97.47-.7.56-1.6.23-2.38l-.2-.61-.53.37c-.3.23-.67.37-1.05.39-1.3,0-2.3-2.03-2.71-4.22.39.36.84.63,1.34.8l1.17.4-.59-1.08c-1-2.1-1.57-4.37-1.69-6.69,2.04,2.87,3.23,6.25,3.45,9.77,1.11-.23,2.09-.87,2.75-1.79.39.33.83.71,1.31,1.12,2.32,1.97,5.21,4.43,5.88,5.16.3.32.4.78.26,1.2-.04,0-.07,0-.11,0-.23-.02-.46-.09-.66-.21-.36-.19-.77-.3-1.18-.31-.86,0-1.64.5-2.02,1.27-.32.64-.27,1.4.12,1.99-.12.14-.19.33-.19.51-.01.42.28.79.68.88,0,.5.18.98.51,1.34.41.39.96.6,1.53.59.42-.03.84-.12,1.24-.25l-.3-.53c-.2-.45-.3-.94-.29-1.44.47-.29.82-.74.96-1.28.16.01.35.02.55.02.67,0,1.34-.07,1.99-.22.04.08.08.16.12.24.36.85.88,1.63,1.52,2.3-.36.97-.08,2.06.7,2.73,0,.51-.16,1.01-.43,1.44l-.36.54c.46.18.95.28,1.44.31,1.03.07,1.92-.71,1.98-1.74,0,0,0,0,0-.01.35-.11.6-.43.61-.81,0-.17-.05-.33-.15-.46.04-.04.09-.09.13-.13.49-.64.58-1.5.22-2.23-.34-.77-1.11-1.25-1.94-1.22-.06,0-.11,0-.17,0l-.2-.33c-.22-.37-.67-1.05-.67-1.05.79.8,1.82,1.32,2.94,1.47.18.72.67,1.31,1.34,1.63.08.48.05.97-.1,1.43l-.23.6s.56.05.86.05c.67.02,1.31-.24,1.77-.73.36-.43.51-1,.39-1.55.34-.2.52-.58.46-.97-.03-.16-.11-.3-.23-.41,0-.02.02-.05.03-.07.36-1.15-.28-2.37-1.43-2.72-.21-.06-.42-.1-.64-.1-.49,0-.97.17-1.36.49-.34-.22-.71-.38-1.1-.49-.29-.07-.58-.17-.86-.28.72-.15,1.42-.42,2.06-.8.5.42,1.15.64,1.8.61.22,0,.44-.02.66-.06.42.32.75.74.98,1.23l.23.6.51-.4c.59-.42.95-1.08,1-1.8,0-.57-.26-1.1-.71-1.45h0c.02-.17,0-.35-.09-.5-.15-.31-.49-.48-.83-.4-.07-.4-.26-.78-.54-1.08-.41-.44-.99-.69-1.59-.68-.91.01-1.71.57-2.04,1.42-.84,0-1.68.13-2.48.38-.68.27-1.4.43-2.13.49-.2.02-.41-.05-.55-.19-2.4-2.68-4.99-5.97-6.29-7.73,1.23.04,2.44-.35,3.41-1.11-4.55-2.98-7.8-9.98-8.68-12.51-.43-1.25-1.08-3.14-4.1-3.14-.14,0-.29,0-.44.01.07-.23.25-.88.46-1.62.98.39,2.04.52,3.08.37.36,1.72.91,3.4,1.65,5,.45,1.01,1.09,1.91,1.88,2.68l.39.32.3-.41c.23-.32.42-.67.58-1.03,1.29,5.46,3.09,7.31,4.41,7.88l.89.38-.23-.94c-.09-.37-.21-.93-.35-1.6,1.05,2.35,2.65,4.4,4.66,6l.52.41.23-.63c.69-1.91.67-4.77-.06-8.76-.07-.4-.15-.79-.23-1.19.09.24.17.43.24.56.77,1.93,1.89,3.7,3.31,5.22.92.93,2.19,1.45,3.5,1.43.39,0,.77-.03,1.15-.09l1.53-.22-1.38-.68c-1.4-.69-3.93-5.51-6.03-9.58,2.28,3.2,5.64,5.47,9.46,6.39l.68.19-.07-.7c-.28-2.4-.98-4.74-2.07-6.9-.64-1.29-1.39-2.52-2.25-3.67,1.42.71,2.97,1.11,4.55,1.17,1.2.03,2.38-.38,3.31-1.14l.97-.8-1.26-.05c-1.21-.05-3.27-1.05-5.83-2.81M37.68,7.07c-.22.13-.49.17-.74.11-.51-.15-.66-1.15-.1-2.05.81.5,1.26,1.69.85,1.93M31.63,77.06c-.48-.01-.93-.24-1.24-.61-.29-.32-.48-.71-.55-1.13.57.19,1.18.29,1.78.28,1.4-.08,2.75-.52,3.93-1.29-1.31,1.56-2.75,2.75-3.93,2.75M47.7,75.6c.61.01,1.21-.08,1.78-.28-.07.42-.26.82-.55,1.13-.3.37-.75.6-1.24.61-1.18,0-2.62-1.19-3.93-2.75,1.18.76,2.53,1.21,3.93,1.29M42.4,7.19c-.25.06-.52.02-.74-.11-.41-.25.04-1.44.84-1.93.56.9.41,1.89-.1,2.05"/><path id="aw" class="az" d="M22.81,59.2c2-1.6,5.19-4.3,8.27-12.36.49-1.29,1.03-2.81,3.64-2.81.22,0,.46.01.71.03.72,2.58,1.1,5.25,1.15,7.93,0,.7-.02,1.38-.06,2.04-2.25,2.89-3.61,6.39-3.9,10.04-1.96-.59-2.75-2.59-2.7-5.18-1.32.6-2.74.92-4.19.94-1.01.02-2.01-.2-2.92-.63M24.32,46.25c-1.36-1.88-1.28-4.58-.52-7.68.3.74.89,1.32,1.63,1.62.17.06.34.12.52.15.2.04.4.06.6.06.47,0,.94-.11,1.36-.33-.7,2.82-1.7,4.95-3.6,6.17M23.29,38.49c-.19.04-.38.06-.57.06-.59-.02-1.16-.2-1.66-.51-.28-.17-.53-.4-.73-.67-.3-.38-.51-.83-.6-1.31-1.65,2.06-2.25,4.77-1.62,7.33,2.32-.86,4.19-2.62,5.18-4.89M17.2,25.89s-.14-.43-.18-.58c-.18-.71-.07-1.47.3-2.1-1.04-.28-2.11-.45-3.19-.49-1.08,0-2.13.3-3.06.86,1,1.91,2.8,3.26,4.91,3.69.26-.57.68-1.05,1.22-1.38M14.46,36.93c1.86-.04,3.67-.59,5.23-1.6-.85-.05-1.64-.45-2.18-1.1-.05-.06-.14-.18-.18-.24-.02-.03-.12-.21-.14-.24-.32-.62-.42-1.33-.27-2.02-1.85,1.17-3.21,2.98-3.8,5.09.44.07.89.11,1.34.11M7.05,32.49c.63-.31,1.71-.76,3.21-1.32-.22-.11-.43-.25-.62-.41l-.08-.07c-.9.03-1.79.05-2.64.05-1.89.11-3.79-.07-5.63-.53.27,1.24,1.46,2.34,4.8,2.77.31-.17.62-.33.95-.5M14.37,31.61c.95.02,1.89-.17,2.76-.55h0c-.53-.31-.94-.79-1.17-1.36-.06-.14-.11-.28-.16-.42-.05-.21-.08-.43-.08-.64-.01-.31.02-.62.1-.92-.2-.03-.41-.04-.61-.04-2.05.13-3.96,1.12-5.25,2.72,1.32.83,2.85,1.24,4.41,1.2M23.53,26.13c.76-1.42-.23-2.52-.65-3.32-.58.69-1.77,1.56-1.32,3.11-1.61.06-2.07,1.46-2.55,2.22.56.15,1.14.24,1.72.29.62.01,1.22-.24,1.64-.7.52.78,1.43,1.21,2.36,1.1.23,0,.44,0,.64,0h.19c-.32-.85-.47-2.32-2.03-2.7M24.29,19.7c.54.26.98.7,1.22,1.24.16.31.27.64.31.99.96.14,1.78.75,2.2,1.62-.07-3.11-2.05-6.84-6.94-8.91-.08,1.65.26,3.3,1,4.78.24-.06.49-.09.73-.09h.01c.51,0,1.01.13,1.46.38M27.41,30.21c-.46-.85-.63-1.83-.48-2.79-.35.25-.75.41-1.17.46.04.12.08.24.11.34.05.16.4,1.12.4,1.12,0,0-1.42-.03-1.54-.03-.48.02-.96-.05-1.42-.21-.04.99.28,1.97.91,2.74,1.4,1.7,4.41,2.71,8.3,2.78-.31-.91-.44-1.87-.4-2.82-1.76,0-3.73-.12-4.71-1.59M22.83,28.89c-.2-.12-.38-.27-.54-.44-.19.13-.39.24-.61.32-.73,5.77,6.2,8.63,11.74,8.86v-.05c-.16-.61-.33-1.21-.54-1.8-.07-.21-.14-.43-.21-.65-5.04-.06-10.1-1.73-9.83-6.23M.82,26.58c1.9,1.5,3.51,2.73,8.78,3.52.62-.75,1.36-1.38,2.2-1.87.56-.35,1.17-.62,1.81-.78.21-.05.83-.16.83-.16-.18-.09-.88-.45-1.05-.55-1.01-.57-1.86-1.38-2.47-2.37-5.61.27-8.26,1.26-10.11,2.23M34.56,41.43c-.26-.91-.54-1.88-.7-2.4-.09-.3-.17-.61-.22-.92-3.93-.11-8.76-1.53-11.11-4.56-1.05-1.31-1.53-2.99-1.34-4.66-.15.02-.3.03-.46.03-.45-.01-.9-.08-1.34-.2-.16-.04-1.16-.22-1.16-.22,0,0,.54-.86.62-1.01.38-.95,1.18-1.67,2.16-1.97-.02-1.02.42-2,1.21-2.66.11-.12.77-.9.77-.9,0,0,.48.9.57,1.04.63.81.86,1.86.63,2.85.66.32,1.17.88,1.42,1.56,1.27-.19,2.23-1.24,2.3-2.51,0-1.39-1.13-2.52-2.52-2.53.02-1.4-1.11-2.55-2.51-2.57-.01,0-.02,0-.03,0h-.01c-1.32,0-2.42,1.02-2.53,2.34-.09,0-.18-.01-.26-.01-1.4-.04-2.57,1.06-2.61,2.46-.02.53.14,1.05.43,1.49-1.32.49-1.99,1.96-1.49,3.28.25.67.78,1.21,1.44,1.47-.82,1.12-.58,2.7.55,3.52.47.34,1.04.51,1.62.48.09,0,.18,0,.28,0-.35,1.39.5,2.79,1.89,3.14.19.05.39.07.59.08.47,0,.92-.14,1.32-.39.15,1.28,1.23,2.24,2.51,2.25.6,0,1.17-.21,1.64-.59.7,1.18,1.84,2.03,3.17,2.36,1.07.19,2.17.1,3.19-.27M19.63,21.68c.06,0,.24-.02.24-.02,0,0,.08-.24.11-.31.26-.76.82-1.38,1.54-1.72-1.43-1.48-3.32-2.44-5.36-2.72-.22,2.02.38,4.05,1.66,5.63.49-.48,1.12-.78,1.81-.86M23.08,52.01c-.34,1.82-.67,3.47-.87,4.28,1.08-.47,2.97-2.14,4.29-8.21-.29-.82-.49-1.67-.6-2.54-.39.43-.83.8-1.32,1.12l-.12.08c-.1.39-.19.78-.29,1.2-.31,1.28-.64,2.68-1.1,4.09M8.85,57.07c.36.05.72.08,1.08.09,2.27,0,4.07-1.34,6.37-6.38.27-.6.95-2.46,1.63-4.39.25-.96.51-1.86.74-2.69-.14.05-.28.1-.43.14l-.47.13-.12-.47c-.05-.19-.09-.37-.13-.56-.33.53-.66,1.04-.98,1.52-.39.76-.75,1.45-.96,1.86-2.4,4.65-5.08,9.94-6.74,10.75M19.25,43.46c-1.36,4.76-3.55,12.75-2.11,16.74,4.91-3.88,5.79-9.24,6.87-13.57l-.06-.09c-.82-1.21-1.23-2.65-1.16-4.11,0-.39.03-.81.07-1.24.03-.28.11-1.09.11-1.09l-.69.89c-.8,1.05-1.84,1.9-3.02,2.48M5.08,52.98c4.62-1.27,7.69-3.22,12.34-10.77-.12-1.14,0-2.29.35-3.38.21-.68.49-1.33.86-1.94.11-.17.37-.61.37-.61l-.8.36c-1.18.52-2.45.78-3.74.77-.11,0-.22,0-.34,0-.82.89-1.45,1.57-1.52,1.63-4.12,3.58-6.79,8.54-7.52,13.95M1.17,37.92c1.18.37,2.41.55,3.64.52,1.31,0,2.61-.17,3.88-.49.97-.25,2.97-.93,3.96-1.27.42-1.56,1.26-2.98,2.43-4.09l.59-.57c-.23.02-1.07.08-1.31.08-1.19,0-2.37-.22-3.49-.64-1.38.51-2.82,1.07-3.62,1.47-3.44,1.73-5.47,3.47-6.09,5M8.31,38.54c-1.82,1.32-5.01,3.42-6.94,3.5.84.69,1.91,1.05,3,1.03,1.84-.11,3.62-.64,5.22-1.55.82-1.01,1.72-1.96,2.69-2.83.08-.08.59-.62,1.24-1.32-.16-.02-.32-.04-.48-.06l-.46-.08c-1.05.36-2.84.97-3.76,1.2-.17.04-.34.08-.51.12M25.47,13.57c-2.6-2.22-7.89-5.99-13.82-6.48.64,1.83,1.75,3.46,3.22,4.72.76.6,3.73,3.03,5.81,4.71-.11-.64-.13-1.28-.07-1.93.02-.16.09-.63.09-.63,0,0,.43.18.58.24,2.61,1,4.78,2.87,6.16,5.31,1,1.84,1.3,3.97.87,6.01-.06.24-.15.47-.27.69,3.88-2.98,1.97-8.78-2.56-12.64M26.33,45.03c.1,1.62.61,3.2,1.46,4.58,1.9-1.83,2.93-5.09,3.33-7.4-1.15-.2-2.17-.88-2.8-1.87,0,0-.3,1.17-.35,1.33-.19.63-.44,1.24-.73,1.84-.26.54-.57,1.05-.92,1.52M12.28,17.17c-2.77-1.8-4.59-3.1-5.26-4.07-.54,1.2-.13,2.35,1.46,3.98.77.15,1.61.35,2.53.59,1.09.3,2.17.65,3.22,1.06-.7-.55-1.37-1.09-1.95-1.56M10.89,18.14c-1.83-.55-3.73-.87-5.65-.95-.48,0-.97.04-1.44.14,1.32,2.64,5.2,5.04,6.87,5.91l.17-.09c.99-.6,2.13-.92,3.29-.92.32,0,.64.02.95.06.77.1,1.53.24,2.28.43-.63-.84-1.11-1.78-1.42-2.78-1.64-.72-3.33-1.32-5.05-1.8M10.64,23.88c-2.78-1.03-6.82-2.58-7.97-3.4-.29,1.45.97,2.59,3.29,3.91,1.55-.27,3.11-.43,4.68-.51M14.29,12.25c-1.69-.98-3.59-1.55-5.54-1.64-.12,0-.24,0-.35,0,.33,1.76,1.18,3.39,2.44,4.67.57.6,2.78,2.38,4.94,4.04-.18-.82-.21-1.66-.09-2.48.02-.11.07-.43.07-.43l.43.02c1.9.22,3.69,1.04,5.09,2.34-.19-.49-.34-1-.47-1.52-.62-.5-1.43-1.16-2.42-1.97s-2.04-1.66-2.8-2.28c-.45-.28-.89-.53-1.3-.76M51.41,40.08c.42.22.89.33,1.36.33.2,0,.4-.02.6-.06.18-.04.35-.09.52-.15.74-.29,1.33-.88,1.63-1.62.76,3.1.85,5.8-.52,7.68-1.89-1.22-2.9-3.35-3.6-6.17M61.21,43.38c.63-2.56.03-5.27-1.63-7.33-.09.48-.3.93-.6,1.31-.2.27-.45.49-.73.67-.5.32-1.07.49-1.65.51-.19,0-.38-.02-.57-.06,1,2.27,2.87,4.03,5.2,4.88M63.35,27.27c2.11-.43,3.91-1.78,4.91-3.69-.92-.56-1.98-.86-3.06-.86-1.08.04-2.15.21-3.19.49.37.63.48,1.39.3,2.1-.04.15-.18.58-.18.58.54.33.96.8,1.22,1.38M66.22,36.82c-.59-2.11-1.95-3.92-3.8-5.09.15.68.05,1.4-.27,2.02-.02.03-.12.21-.14.24-.04.06-.13.18-.18.24-.54.65-1.33,1.05-2.18,1.1,1.56,1.01,3.37,1.56,5.23,1.6.45,0,.9-.04,1.34-.11M73.23,32.99c3.34-.43,4.53-1.52,4.8-2.77-1.84.46-3.74.64-5.63.53-.85,0-1.73-.02-2.64-.05l-.08.07c-.19.16-.39.3-.62.41,1.49.56,2.58,1,3.21,1.32.33.17.64.33.95.5M69.37,30.41c-1.29-1.61-3.2-2.59-5.25-2.72-.2,0-.41.01-.61.04.08.3.11.61.1.92,0,.22-.03.43-.08.64-.04.14-.09.29-.15.42-.23.57-.64,1.05-1.17,1.36h0c.87.38,1.81.56,2.76.55,1.56.04,3.09-.37,4.41-1.2M53.77,28.85h.19c.2,0,.42,0,.64,0,.93.11,1.84-.32,2.36-1.1.42.46,1.02.71,1.64.7.58-.04,1.15-.14,1.72-.29-.49-.76-.94-2.17-2.55-2.22.44-1.55-.75-2.41-1.32-3.11-.42.8-1.41,1.9-.65,3.32-1.56.39-1.72,1.86-2.03,2.7M56.5,19.34h.01c.25,0,.49.03.74.09.74-1.48,1.08-3.13,1-4.78-4.9,2.07-6.88,5.8-6.94,8.91.42-.87,1.24-1.48,2.2-1.62.05-.34.15-.68.31-.99.25-.55.68-.99,1.23-1.24.45-.25.95-.38,1.46-.38M47.22,31.81c.04.96-.09,1.92-.4,2.82,3.89-.07,6.9-1.08,8.3-2.78.63-.77.95-1.74.91-2.73-.46.16-.94.23-1.42.21-.12,0-1.54.03-1.54.03,0,0,.35-.96.4-1.12.03-.11.07-.23.11-.34-.42-.05-.83-.21-1.17-.46.15.96-.02,1.94-.47,2.79-.99,1.47-2.95,1.59-4.71,1.59M46.67,35.12c-.07.22-.14.44-.21.65-.21.59-.39,1.19-.53,1.8v.05h0c5.54-.23,12.46-3.08,11.74-8.86-.22-.08-.42-.19-.61-.32-.16.17-.34.32-.54.44.26,4.5-4.79,6.17-9.83,6.23M68.41,24.35c-.6.99-1.45,1.81-2.47,2.37-.17.1-.87.46-1.05.55,0,0,.62.11.83.16.64.17,1.25.43,1.81.78.84.49,1.58,1.13,2.2,1.87,5.27-.79,6.89-2.01,8.78-3.52-1.85-.97-4.5-1.96-10.11-2.23M47.97,41.7c1.33-.33,2.47-1.18,3.17-2.36.46.38,1.04.59,1.64.59,1.28,0,2.36-.97,2.51-2.25.39.25.85.39,1.32.39,1.43-.02,2.57-1.2,2.55-2.63,0-.2-.03-.4-.08-.59.09,0,.19,0,.28,0,1.39.07,2.58-.99,2.65-2.38.03-.58-.14-1.15-.48-1.62,1.31-.52,1.95-2.01,1.42-3.31-.27-.67-.8-1.19-1.47-1.44.78-1.16.48-2.74-.68-3.52-.44-.3-.96-.45-1.49-.43-.09,0-.18,0-.27.01-.11-1.32-1.2-2.34-2.53-2.34h0c-1.4,0-2.54,1.13-2.55,2.53,0,0,0,.02,0,.03-1.39.01-2.51,1.14-2.52,2.53.07,1.28,1.03,2.33,2.3,2.51.25-.69.76-1.25,1.42-1.56-.23-1,0-2.05.63-2.85.09-.15.57-1.04.57-1.04,0,0,.66.78.77.9.78.66,1.23,1.64,1.21,2.66.98.3,1.77,1.02,2.16,1.97.08.15.62,1.02.62,1.02,0,0-1,.18-1.17.22-.44.12-.89.19-1.34.2-.15,0-.31-.01-.46-.03.19,1.67-.3,3.35-1.35,4.66-2.35,3.02-7.18,4.45-11.11,4.56-.05.31-.13.62-.22.92-.16.53-.44,1.49-.7,2.4,1.02.37,2.12.46,3.19.27M61.5,22.54c1.29-1.58,1.89-3.61,1.66-5.64-2.04.28-3.93,1.24-5.36,2.72.72.34,1.28.96,1.54,1.72.03.08.11.31.11.31,0,0,.18.01.24.02.68.08,1.32.38,1.81.86M55.15,47.93c-.1-.41-.19-.81-.29-1.2l-.12-.08c-.48-.31-.93-.69-1.31-1.12-.11.87-.31,1.72-.6,2.54,1.32,6.07,3.2,7.75,4.29,8.21-.2-.8-.53-2.46-.87-4.28-.46-1.41-.79-2.8-1.1-4.09M63.74,46.31c-.21-.41-.56-1.1-.96-1.86-.32-.48-.65-.99-.98-1.52-.03.19-.08.37-.13.56l-.12.47-.47-.13c-.14-.04-.29-.09-.43-.14.24.83.49,1.74.74,2.69.68,1.94,1.36,3.79,1.63,4.39,2.3,5.04,4.11,6.38,6.37,6.38.36,0,.72-.03,1.08-.09-1.66-.81-4.34-6.1-6.74-10.75M57.06,40.97c-.17-.22-.69-.89-.69-.89,0,0,.08.81.11,1.09.04.44.07.85.07,1.24.07,1.46-.33,2.91-1.16,4.11l-.06.09c1.08,4.34,1.96,9.7,6.87,13.57,1.44-3.98-.75-11.98-2.11-16.74-1.19-.58-2.22-1.43-3.02-2.48M66.72,39.03c-.07-.06-.7-.74-1.52-1.63-.11,0-.22,0-.33,0-1.29,0-2.56-.26-3.74-.77l-.8-.36s.26.44.37.61c.37.61.66,1.26.86,1.94.36,1.09.48,2.24.36,3.38,4.65,7.56,7.72,9.51,12.34,10.78-.73-5.41-3.41-10.37-7.53-13.95M72.07,32.92c-.79-.4-2.24-.96-3.62-1.47-1.12.42-2.3.64-3.49.64-.23,0-1.08-.06-1.31-.08,0,0,.44.43.59.57,1.17,1.11,2.02,2.53,2.43,4.09.99.34,2.99,1.03,3.96,1.27,1.27.33,2.57.49,3.88.49,1.24.02,2.47-.15,3.65-.52-.62-1.53-2.65-3.27-6.1-5M70.52,38.41c-.92-.24-2.71-.84-3.76-1.2l-.46.08c-.16.03-.32.05-.48.06.65.7,1.16,1.24,1.24,1.32.97.88,1.87,1.82,2.69,2.83,1.6.91,3.38,1.44,5.22,1.55,1.09.03,2.16-.34,3-1.03-1.93-.08-5.12-2.18-6.94-3.5-.17-.04-.34-.08-.51-.12M51.3,26.21c-.11-.22-.2-.45-.27-.69-.44-2.04-.13-4.17.87-6.01,1.37-2.43,3.55-4.31,6.16-5.31.15-.06.58-.24.58-.24,0,0,.07.47.09.63.06.64.04,1.29-.07,1.93,2.08-1.69,5.05-4.11,5.81-4.71,1.47-1.27,2.58-2.89,3.22-4.72-5.93.49-11.23,4.27-13.83,6.48-4.53,3.86-6.44,9.66-2.56,12.64M52.08,43.51c-.29-.59-.53-1.21-.72-1.84-.04-.15-.35-1.33-.35-1.33-.63.99-1.65,1.66-2.8,1.87.41,2.31,1.43,5.56,3.33,7.4.86-1.38,1.36-2.96,1.47-4.58-.36-.48-.67-.99-.92-1.52M65.09,18.74c1.06-.41,2.13-.76,3.22-1.06.92-.25,1.77-.44,2.54-.59,1.59-1.62,2-2.78,1.46-3.98-.67.97-2.49,2.27-5.26,4.07-.58.48-1.25,1.01-1.95,1.56M63.39,19.94c-.31,1-.79,1.94-1.42,2.78.75-.19,1.51-.33,2.28-.43.32-.04.64-.06.96-.06,1.16,0,2.29.32,3.29.92l.17.09c1.67-.87,5.55-3.27,6.87-5.91-.47-.1-.95-.15-1.44-.14-1.91.08-3.81.4-5.65.95-1.72.48-3.41,1.08-5.05,1.8M73.38,24.39c2.33-1.32,3.58-2.46,3.29-3.91-1.15.82-5.19,2.38-7.97,3.4,1.57.07,3.13.24,4.68.51M63.74,13.01c-.76.62-1.79,1.46-2.8,2.28l-2.42,1.97c-.12.52-.28,1.02-.47,1.52,1.41-1.3,3.19-2.12,5.09-2.34l.43-.02s.06.33.07.43c.12.83.09,1.67-.09,2.48,2.16-1.66,4.37-3.44,4.94-4.04,1.26-1.28,2.11-2.91,2.44-4.67-.12,0-.23,0-.35,0-1.95.09-3.85.66-5.54,1.64-.41.23-.85.48-1.3.76M39.28,33.19c-.96,3.26-5.41,4.28-5.41,4.28-.38-1.76-1.58-3.9-1.29-5.74.89.02,1.78-.16,2.6-.52.58-.28,1.06-.73,1.37-1.29.62,1.3,1.56,2.43,2.73,3.27M44.23,31.2c-.6-.3-1.1-.77-1.44-1.34-.62,1.33-1.57,2.47-2.75,3.33.97,3.26,5.41,4.28,5.41,4.28.37-1.74,1.48-3.85,1.28-5.68-.87,0-1.72-.21-2.5-.59M42.4,36.7c-1.25-.7-2.21-1.8-2.74-3.13-.53,1.33-1.49,2.43-2.74,3.13-.15.1-.31.18-.46.27.76,1.48,1.85,2.76,3.2,3.74,1.35-.98,2.44-2.26,3.2-3.74-.15-.08-.31-.17-.46-.27M36.02,37.19c-.62.3-1.27.54-1.94.73.05.33.13.66.23.98.37,1.2,1.33,4.63,1.33,4.63,1.55-.19,2.91-1.12,3.64-2.5-1.37-1.01-2.48-2.32-3.26-3.84M43.29,37.19c-.77,1.51-1.89,2.83-3.26,3.84.73,1.38,2.09,2.31,3.64,2.5,0,0,.96-3.43,1.33-4.64.1-.32.17-.65.23-.98-.67-.18-1.32-.42-1.94-.73M41.31,43.15c-.69-.45-1.26-1.08-1.65-1.81-.39.73-.95,1.36-1.64,1.81-.34.22-.71.41-1.09.55.59,1.7,1.52,3.27,2.74,4.6,1.22-1.33,2.15-2.9,2.74-4.6-.38-.14-.75-.33-1.09-.55M41.28,47.03c.12,3.16-.07,8.51-1.61,10.57-1.54-2.06-1.73-7.41-1.61-10.57.38.56.8,1.09,1.26,1.6l.35.37s.26-.28.35-.37c.46-.5.88-1.04,1.26-1.6M37.59,46.51v-.17c-.48-.77-.87-1.61-1.13-2.48-.19.05-.38.09-.57.13.72,2.61,1.1,5.3,1.15,8.01,0,3.63-.53,7.36-1.86,9.8,1.64-.56,2.56-2.13,3.19-5.81-1.06-3.41-.83-8.73-.79-9.48M42.27,51.99c.05-2.71.44-5.4,1.15-8.01-.19-.03-.38-.07-.57-.13-.27.87-.65,1.71-1.13,2.48v.17c.04.75.27,6.07-.79,9.48.63,3.67,1.56,5.24,3.19,5.81-1.33-2.44-1.86-6.17-1.86-9.8M40.61,56.87c-.15.36-.34.7-.58,1.02-.1.13-.38.51-.38.51l-.39-.51c-.23-.32-.42-.66-.57-1.02-.15.8-.37,1.58-.64,2.35,0,.16.02.31.02.44.09,2.71.37,6.15,1.58,7.72,1.21-1.57,1.48-5,1.58-7.72,0-.13.01-.28.02-.44-.27-.77-.49-1.55-.64-2.35M46.66,65.68c-.38.29-.84.46-1.32.47-1.73,0-2.93-2.58-3.29-5.29,0-.03,0-.06,0-.09-.13-.18-.25-.37-.35-.57-.03,1.05-.11,2.09-.25,3.13-.09.59-.34,1.91-.47,2.35.67,1.58,2.18,2.63,3.89,2.71,1.04.07,1.93-.72,1.99-1.75.02-.33-.05-.66-.19-.96M40.03,67.67c-.09.11-.38.45-.38.45,0,0-.29-.34-.38-.45-.27-.36-.49-.75-.65-1.17-.96,3.81-.6,7.83,1.03,11.4,1.63-3.57,1.99-7.59,1.03-11.4-.16.42-.38.81-.65,1.17M48.96,69.45c.12.63.2,2.3-1.28,2.3-2,0-4.51-1.98-5.6-3.86-.27-.21-.52-.45-.74-.71.13.62.23,1.25.28,1.89.02.25.05.73.06.98.02.5,0,.99-.01,1.47.57.74,1.21,1.44,1.9,2.07,1.2.89,2.63,1.42,4.13,1.53,2.66,0,3.47-1.54,3.47-3.06-.08-1.25-.97-2.3-2.19-2.6M40.07,78.14c-.1.19-.42.71-.42.71,0,0-.32-.53-.42-.71-.43-.82-.76-1.69-.98-2.58-.3,3.59,0,6.78,1.4,9.47,1.38-2.69,1.7-5.87,1.4-9.46-.22.9-.55,1.76-.98,2.58M49.95,75.19c-.06,1.24-1.02,2.26-2.26,2.37-2.45,0-5.27-4.09-6.07-5.32-.04.54-.11,1.07-.19,1.58,0,0,.03.83.05,1.11.07.94.15,1.83.16,2.68,1.23,2.19,3.54,3.54,6.05,3.54,1.85,0,3.96-1.32,3.96-3.42,0-1.11-.67-2.11-1.7-2.54M34.45,68.4c1.71-.08,3.23-1.13,3.89-2.71-.13-.44-.38-1.76-.47-2.35-.14-1.04-.23-2.08-.25-3.13-.1.2-.22.39-.35.57,0,.03,0,.06,0,.09-.35,2.7-1.55,5.28-3.28,5.28-.48-.02-.94-.18-1.33-.47-.46.93-.09,2.06.84,2.52.3.15.63.22.96.19M28.16,72.06c0,1.52.8,3.06,3.46,3.06,1.49-.1,2.93-.64,4.13-1.53.69-.64,1.32-1.33,1.9-2.07-.02-.48-.03-.97-.01-1.47,0-.25.04-.73.06-.98.05-.63.14-1.27.28-1.89-.23.26-.48.5-.75.71-1.09,1.88-3.6,3.86-5.6,3.86-1.48,0-1.4-1.66-1.28-2.3-1.22.3-2.1,1.35-2.19,2.6M27.66,77.7c0,2.1,2.12,3.42,3.96,3.42,2.51,0,4.82-1.36,6.05-3.54,0-.85.09-1.74.16-2.68.02-.28.05-1.11.05-1.11-.08-.51-.15-1.04-.2-1.58-.8,1.24-3.62,5.32-6.07,5.32-1.24-.11-2.21-1.12-2.26-2.37-1.03.43-1.7,1.43-1.7,2.54M53.6,59.83c-1.45-.02-2.87-.35-4.19-.94.05,2.59-.74,4.6-2.7,5.18-.29-3.66-1.65-7.15-3.9-10.04-.04-.66-.06-1.34-.06-2.04.05-2.68.43-5.34,1.15-7.93.25-.02.49-.03.71-.03,2.61,0,3.15,1.52,3.64,2.81,3.08,8.06,6.27,10.75,8.27,12.36-.91.43-1.91.65-2.92.63M34.99,16.97c-.47.29-.98.51-1.52.66-.22.05-.44.08-.66.08-.92,0-1.46-.55-1.26-1.27.39.17.8.27,1.23.28.22,0,.45-.04.65-.13.94-.58,2.01-.93,3.11-1.02.14,0,.28,0,.43.02.4.01.78.19,1.04.49-.32-.05-.65-.07-.98-.08-.26,0-.52.02-.78.08-.53.09-.99.4-1.26.86v.02M45.25,24.7c-.35-2.63,1.98-8.64.5-11.08h-.1c-.34.02-.67-.12-.9-.37h.03c1.53,0,2.45-1.31,1.7-2.47-.44.3-.95.47-1.48.5-.21,0-.41-.04-.6-.13,1.63-.31,1.47-1.59.78-2-.69.34-1.45.49-2.21.44-1.56,0-3.46-.34-5.18-.34-.39,0-.78.02-1.17.06-.87.1-1.25.44-1.25.98,0,.44.57.74.92.74.6,0,2.15-.59,3.38-.59,1.34.1,2.66.32,3.97.65-.28.16-.6.24-.92.24-.17,0-.33-.01-.49-.05-.25-.05-.48-.1-.7-.14-.09,1.34-1.24,2.36-2.58,2.27-1.1-.07-2.01-.87-2.23-1.95-.14.03-.28.04-.42.04-.06,0-.11,0-.17-.02.03.51.22,1.01.54,1.41.47.41,1.01.73,1.59.96,1.08.5,2.3,1.07,2.3,2.59.12.82-.45,1.59-1.27,1.71-.11.02-.23.02-.34.01-.24,0-.47-.02-.71-.06,1.36,1.96-2.14,6.32-2.57,6.75-2.4,2.38-2.46,4.74-3.59,6.35h.25c1.41,0,4.26-.09,4.26-3.48,0,3.04,3.1,5.11,3.1,5.11,0,0,3.09-2.07,3.09-5.11,0,3.3,3.15,3.55,4.13,3.55.18,0,.28,0,.28,0-.92-2.11-1.56-4.33-1.91-6.6M37.18,11.39c.21,1.06,1.23,1.75,2.29,1.54.89-.17,1.54-.94,1.58-1.85-.22-.04-.43-.06-.61-.09-.03.74-.65,1.31-1.39,1.28-.6-.02-1.11-.45-1.25-1.04l-.25.06-.36.09M39.09,11.41c.25,0,.46-.2.46-.45-.3.01-.6.05-.9.11.05.2.23.35.44.35"/><path id="ax" class="ay" d="M10.52,73.99s-.04-.1-.13-.37c-.28-.88.2-1.83,1.09-2.12.67-.21,1.4,0,1.84.56.53-.38,1.13-.67,1.77-.83.82-.36,1.62-.79,2.36-1.29-.5.09-.99.24-1.47.42-1.01-.12-1.97-.49-2.8-1.09-.43.49-1.05.75-1.7.72-.24,0-.47-.03-.7-.07-.63-.19-1.14-.63-1.43-1.22-.2-.32.15-.84.75-.58.02-.95.81-1.71,1.76-1.7.82.01,1.52.61,1.66,1.42.1,0,.21,0,.32,0,.79,0,1.58.12,2.35.34.74.29,1.52.47,2.31.53.22.01.44-.04.64-.14.15-.1.29-.21.41-.34,2.68-2.9,5.47-6.57,6.46-7.92,1.18-.05,2.34-.28,3.44-.69,0,.96.2,1.91.57,2.8-2.5,2.13-6.49,5.48-7.32,6.39-.31.33-.47.77-.44,1.22.01.22.04.44.09.65.17.09.36.14.56.14.63,0,1.12-.51,1.81-.51h.09c.94.01,1.69.79,1.67,1.73,0,.24-.06.48-.16.7-.08.12-.18.23-.3.32.27.08.42.37.34.64-.05.17-.19.31-.37.35-.27.06-.55.09-.83.09-.45,0-.9-.08-1.31-.26-.56-.28-.93-.84-.97-1.47-.31.04-.62.06-.94.06-.63,0-1.26-.06-1.88-.21.04-.31.13-.61.27-.89-.8.63-.89,2.21-2.58,3.76.42.81.27,1.81-.38,2.45-.47.39-1.06.6-1.66.58-.14,0-.29,0-.43-.03-.28-.04-.48-.29-.44-.57.02-.16.11-.3.25-.38-.13-.11-.24-.23-.35-.35-.54-.75-.36-1.8.39-2.34.28-.2.62-.31.97-.31.14,0,.28.01.42.04.94-1.54,1.05-2.33,2.65-3.96-.52.24-.99.58-1.39,1-.38.23-.73.49-1.05.79-.78.81-1.84,1.28-2.95,1.31-.04.77-.55,1.44-1.28,1.7-.24.08-.48.12-.73.11-.4,0-.79-.09-1.15-.25-.64-.27-.44-.86-.1-.92M9.39,71.47c.2-.49.51-.92.92-1.25-.53-.27-.95-.71-1.2-1.25-.86.7-.61,1.81.27,2.49M10.65,75.33c-.16,1.04.65,1.68,1.69,1.68.06,0,.12,0,.18,0-.18-.49-.23-1.03-.15-1.54-.23.06-.46.09-.69.09-.36,0-.71-.07-1.03-.22M15.89,78.54c-.15,0-.3-.02-.45-.05.03.77.68,1.36,1.45,1.33.02,0,.04,0,.07,0,.23,0,.46-.04.69-.11-.28-.44-.45-.95-.48-1.47-.39.2-.82.3-1.26.31M23.93,74.38c.01.52-.11,1.04-.34,1.5.17.04.35.06.53.06.78.08,1.48-.48,1.56-1.26,0-.06,0-.12,0-.18-.2.03-.41.05-.62.05-.38,0-.77-.05-1.13-.17M34.95,10.66h-.45c-3.14,0-2.58,3.12-1.87,3.83.29-.4.77-.63,1.26-.61.5,0,.97.18,1.36.48.24-.05.48-.07.72-.07,1.62,0,2.83,1.09,2.66,2.37-.53-.1-1.06-.15-1.59-.17-.22,0-.44.02-.66.07-1.36.34-1.01,1.28-1.01,1.28.5-.22,1.03-.34,1.57-.36.08,0,.17,0,.25.01.57.11,1.16.19,1.74.24.64,0,1.13-.25,1.13-1.24,0-1.94-2.5-1.95-3.76-3.22-.43-.55-.68-1.22-.71-1.91-.3-.15-.53-.39-.66-.7M68.81,73.99s.04-.1.13-.37c.29-.88-.2-1.83-1.08-2.12-.67-.22-1.4,0-1.84.56-.53-.38-1.13-.67-1.77-.83-.82-.36-1.61-.79-2.36-1.29.5.09.99.24,1.47.42,1.01-.12,1.98-.49,2.8-1.09.43.49,1.05.75,1.7.72.24,0,.47-.03.7-.07.63-.19,1.14-.63,1.43-1.22.2-.32-.15-.84-.76-.58-.02-.95-.81-1.71-1.76-1.7-.83,0-1.53.61-1.66,1.43-.1,0-.21,0-.32,0-.79,0-1.58.12-2.35.34-.74.29-1.52.47-2.31.53-.22.01-.44-.04-.64-.14-.15-.1-.29-.21-.41-.34-2.68-2.9-5.46-6.57-6.46-7.92-1.18-.05-2.34-.28-3.44-.69,0,.96-.2,1.91-.57,2.8,2.5,2.13,6.49,5.48,7.32,6.39.31.33.47.77.44,1.22-.01.22-.04.44-.09.65-.17.09-.36.14-.56.14-.63,0-1.12-.51-1.81-.51h-.09c-.94.01-1.69.78-1.68,1.72,0,.24.06.48.16.7.08.12.18.23.3.32-.27.08-.42.37-.34.64.05.17.2.3.37.35.27.06.55.09.82.09.45,0,.9-.08,1.31-.26.56-.28.93-.84.97-1.47.31.04.62.06.94.06.63,0,1.26-.06,1.88-.21-.04-.31-.13-.61-.27-.89.8.63.89,2.21,2.58,3.76-.42.81-.27,1.81.38,2.45.47.39,1.06.6,1.66.58.14,0,.29,0,.43-.03.28-.04.48-.29.44-.57-.02-.16-.11-.3-.25-.38.13-.11.24-.23.35-.35.54-.75.37-1.8-.38-2.34-.28-.2-.62-.32-.97-.32-.14,0-.28.01-.42.04-.94-1.54-1.05-2.33-2.65-3.96.52.24,1,.58,1.4,1,.38.23.73.49,1.05.79.78.81,1.84,1.28,2.95,1.31.04.77.55,1.44,1.28,1.7.24.08.48.12.73.11.4,0,.79-.09,1.15-.25.64-.27.44-.86.1-.92M70.21,68.97c-.25.54-.67.98-1.2,1.25.41.33.73.76.92,1.25.89-.69,1.14-1.79.27-2.49M67.64,75.55c-.23,0-.47-.03-.69-.09.08.52.03,1.05-.14,1.54.06,0,.12,0,.18,0,1.03,0,1.85-.64,1.69-1.68-.32.15-.68.22-1.03.22M62.17,78.23c-.03.52-.2,1.03-.48,1.47.22.07.45.1.69.11.76.07,1.44-.5,1.5-1.26,0-.02,0-.04,0-.06-.15.04-.3.05-.45.05-.44,0-.87-.11-1.26-.31M54.26,74.54c-.21,0-.41-.01-.62-.05-.02.78.6,1.43,1.39,1.45.06,0,.12,0,.18,0,.18,0,.35-.02.53-.06-.24-.46-.36-.98-.34-1.5-.37.12-.75.17-1.13.17M36.56,8.86c.41-.05.81-.07,1.22-.07.91,0,1.85.09,2.77.18.86.08,1.68.16,2.42.16.26,0,.49-.01.71-.03.84-2.19,2.62-4.25,3.56-5.96-.61.19-2.02,0-2.44.57-.18.25,0,.81-.34.81h0c-.01-.35-.31-.62-.65-.61,0,0-.02,0-.02,0-.29,0-.55.15-.73.38-.51.59.65,1.74.03,2.89h.08c.72,0,.81-.91.81-1.39.48,1.15-.28,1.91-1.47,1.91-.2,0-.41-.02-.61-.06-1.23-.24-1.79-.77-1.79-1.9.05-.34.03-.59.42-.84-.11.3-.16.61-.14.93-.02.48.27.92.72,1.09-.09-1.51,1.46-1.89,1.34-3-.04-.42-.55-.75-1.16-.75-.23,0-.45.04-.66.13.58-1.02-.64-2.01-.95-2.51-.31.5-1.53,1.49-.95,2.51-.21-.08-.44-.13-.66-.13-.61,0-1.11.32-1.16.75-.12,1.11,1.43,1.49,1.34,3,.45-.17.74-.61.72-1.09.02-.31-.03-.63-.14-.93.39.25.37.49.42.84,0,1.12-.56,1.66-1.79,1.9-.2.04-.4.06-.61.06-1.2,0-1.95-.77-1.47-1.91,0,.48.09,1.39.81,1.39h.08c-.62-1.15.54-2.29.03-2.89-.17-.23-.44-.37-.73-.38-.35-.03-.65.24-.68.58,0,0,0,.01,0,.02h0c-.35,0-.16-.56-.34-.81-.42-.57-1.83-.37-2.44-.57.94,1.71,2.72,3.77,3.56,5.96.29-.13.59-.22.91-.25"/></g></g></svg>