<?xml version="1.0" encoding="UTF-8" standalone="no"?>
<svg
   id="LOGO"
   version="1.1"
   viewBox="0 0 188.97639 264.56694"
   sodipodi:docname="nowe-zpt-logo.svg"
   width="50mm"
   height="70mm"
   inkscape:version="1.4 (e7c3feb1, 2024-10-09)"
   xmlns:inkscape="http://www.inkscape.org/namespaces/inkscape"
   xmlns:sodipodi="http://sodipodi.sourceforge.net/DTD/sodipodi-0.dtd"
   xmlns="http://www.w3.org/2000/svg"
   xmlns:svg="http://www.w3.org/2000/svg">
  <sodipodi:namedview
     id="namedview5"
     pagecolor="#ffffff"
     bordercolor="#999999"
     borderopacity="1"
     inkscape:showpageshadow="2"
     inkscape:pageopacity="0"
     inkscape:pagecheckerboard="0"
     inkscape:deskcolor="#d1d1d1"
     inkscape:document-units="mm"
     inkscape:zoom="0.70763072"
     inkscape:cx="240.2383"
     inkscape:cy="340.57312"
     inkscape:window-width="1536"
     inkscape:window-height="947"
     inkscape:window-x="0"
     inkscape:window-y="25"
     inkscape:window-maximized="0"
     inkscape:current-layer="LOGO" />
  <!-- Generator: Adobe Illustrator 29.7.1, SVG Export Plug-In . SVG Version: 2.1.1 Build 8)  -->
  <defs
     id="defs1">
    <style
       id="style1">
      .st0 {
        fill: #1d1d1b;
      }

      .st0, .st1 {
        stroke: #000;
        stroke-miterlimit: 10;
      }
    </style>
  </defs>
  <path
     class="st0"
     d="M 94.645723,44.950858 0.35375666,99.572004 0.19660404,208.54163 94.304699,262.93528 188.59627,208.31414 188.77976,99.299337 94.645332,44.950858 Z m 47.120257,99.717272 v 72.41631 c 0,0 -15.68895,9.05789 -15.68895,9.05789 l -0.0521,-72.4226 -31.430915,18.07411 0.042,-90.580015 -62.985983,36.223675 31.520888,18.09769 c 9.692389,5.58167 15.652795,15.92704 15.620579,27.11158 v 0 c 0,0 0.05226,0.0306 0.05226,0.0306 v 18.11615 c 0,0 0,0.0824 0,0.0824 -0.02319,8.03324 -8.718043,13.04287 -15.679512,9.03391 l -31.517743,-18.10634 -0.06993,36.2225 -15.689333,-9.05787 0.05225,-54.34849 47.215326,27.11629 -0.05224,-18.09376 -47.215327,-27.13869 v -18.11606 c 0,0 78.759787,-45.290591 78.759787,-45.290591 l 15.741583,9.057883 v 72.428558 c 0,0 62.86143,-36.19618 62.86143,-36.19618 l 0.10456,18.11616 -31.58766,18.1645 z"
     id="path1"
     style="stroke-width:0.392881;fill:#000000" />
  <g
     id="g5"
     transform="matrix(0.39288154,0,0,0.39288154,-31.233527,-27.634793)"
     style="fill:#000000">
    <path
       class="st1"
       d="m 120.634,222.394 c 0,-0.509 0,-1.019 0,-1.528 0,-16.703 0,-33.407 -0.001,-50.11 0,-4.886 2.723,-10.263 6.196,-12.226 3.515,-1.986 6.16,0.244 6.159,5.143 -0.005,24.845 -0.038,49.706 0.032,74.508 0.011,4.016 -1.834,8.717 -4.268,11.14 -2.888,2.874 -5.797,3.124 -7.588,0.645 -9.237,-12.786 -18.476,-25.571 -27.715,-38.356 -0.237,-0.328 -0.483,-0.642 -0.918,-1.22 0,0.855 0,1.335 0,1.814 0,16.656 0,33.312 0,49.968 0,4.877 -2.624,10.044 -6.129,12.061 -3.5,2.014 -6.12,-0.14 -6.12,-5.019 0.001,-25.079 0,-50.158 -10e-4,-75.236 0,-3.603 1.338,-7.485 3.53,-9.89 1.912,-2.097 5.109,-4.146 7.02,-2.131 0.645,0.68 1.329,1.303 1.9,2.098 8.993,12.525 17.969,25.073 26.951,37.615 0.232,0.323 0.471,0.635 0.707,0.952 0.081,-0.076 0.162,-0.152 0.243,-0.228 z"
       id="path2"
       style="fill:#000000" />
    <path
       class="st1"
       d="m 232.948,142.888 c -1.186,5.748 -2.313,11.203 -3.438,16.658 -1.992,9.657 -3.978,19.314 -5.975,28.972 -0.992,4.799 -2.966,7.995 -6.207,10.095 -4.233,2.743 -6.395,1.945 -7.69,-2.793 -4.31,-15.772 -8.58,-31.587 -12.969,-47.279 -1.522,-5.442 1.648,-11.832 5.045,-14.155 2.64,-1.805 5.334,-0.944 6.068,2.105 3.023,12.556 6.055,25.103 9.086,37.651 0.084,0.346 0.196,0.664 0.373,1.256 1.132,-5.635 2.195,-10.919 3.254,-16.203 2.221,-11.078 4.438,-22.155 6.66,-33.233 0.866,-4.319 3.228,-8.151 6.011,-9.771 2.739,-1.594 5.013,-0.538 5.943,2.763 3.358,11.925 6.714,23.852 10.074,35.775 0.106,0.376 0.235,0.73 0.465,1.439 0.65,-3.985 1.233,-7.531 1.805,-11.073 1.97,-12.203 3.933,-24.405 5.904,-36.609 0.593,-3.675 2.649,-7.26 5.272,-9.223 2.456,-1.839 4.861,-1.544 6.051,0.682 0.921,1.722 0.523,4.224 0.035,6.729 -1.701,8.721 -3.458,17.452 -5.187,26.178 -2.416,12.196 -4.826,24.392 -7.238,36.587 -1.025,5.18 -3.092,8.443 -6.716,10.598 -3.72,2.212 -5.822,1.444 -6.925,-2.521 -3.067,-11.03 -6.135,-22.058 -9.206,-33.084 -0.127,-0.457 -0.283,-0.886 -0.495,-1.545 z"
       id="path3"
       style="fill:#000000" />
    <path
       class="st1"
       d="m 287.187,127.831 c 0.264,2.665 0.351,5.226 0.778,7.483 0.688,3.637 3.257,4.859 6.526,3.074 5.746,-3.138 11.496,-6.477 17.244,-9.722 0.661,-0.373 1.338,-0.801 1.978,-0.991 2.574,-0.767 4.508,1.519 4.395,5.089 -0.114,3.623 -2.218,7.837 -4.913,9.817 -0.414,0.304 -0.835,0.549 -1.252,0.79 -5.158,2.982 -10.315,5.95 -15.473,8.939 -3.084,1.788 -6.133,3.152 -9.058,3.463 -6.728,0.715 -10.506,-3.669 -11.668,-12.416 -0.275,-2.069 -0.403,-4.281 -0.403,-6.54 0.002,-6.433 -0.171,-12.797 0.234,-19.423 0.59,-9.648 3.584,-18.997 9.833,-27.299 2.853,-3.791 5.961,-6.581 9.209,-8.583 3.481,-2.145 6.979,-4.438 10.41,-5.342 7.984,-2.105 12.667,2.158 14.58,11.698 0.947,4.721 0.745,10.199 0.609,15.611 -0.074,2.97 -1.406,5.445 -3.551,7.119 -0.754,0.589 -1.526,1.083 -2.29,1.526 -8.538,4.943 -17.076,9.868 -25.614,14.797 l -1.574,0.909 z M 308.31,103.42 c 0.169,-3.45 -0.008,-6.54 -0.88,-9.07 -1.083,-3.144 -3.182,-4.157 -6.139,-2.756 -2.313,1.096 -4.658,2.518 -6.976,4.058 -1.779,1.182 -3.387,3.196 -4.551,5.744 -2.291,5.015 -2.461,9.555 -2.34,14.082 z"
       id="path4"
       style="fill:#000000" />
    <path
       class="st1"
       d="m 190.462,177.388 c -0.151,5.012 -0.027,9.617 -0.488,14.451 -1.203,12.628 -6.231,22.691 -14.973,29.885 -5.27,4.337 -10.633,7.415 -15.897,8.914 -7.827,2.229 -12.842,-2.456 -13.856,-12.795 -0.256,-2.609 -0.272,-5.408 -0.284,-8.187 -0.024,-5.806 -0.119,-11.581 0.09,-17.509 0.201,-5.675 1.372,-11.557 4.024,-17.55 3.042,-6.873 7.086,-11.883 11.743,-15.397 5.193,-3.919 10.438,-7.108 15.59,-8.453 7.484,-1.954 12.521,2.643 13.517,12.652 0.453,4.551 0.378,9.497 0.533,13.989 z m -12.385,7.36 c 0,0 -0.006,0.003 -0.009,0.004 0,-3.871 0.201,-7.883 -0.047,-11.581 -0.373,-5.549 -2.642,-7.32 -6.879,-5.391 -2.548,1.16 -5.157,2.748 -7.705,4.575 -3.383,2.426 -5.533,6.494 -6.036,11.38 -0.356,3.456 -0.395,6.81 -0.413,10.118 -0.026,4.785 -0.071,9.6 0.194,14.197 0.346,6.011 2.862,7.694 7.43,5.368 2.011,-1.024 4.035,-2.209 6.047,-3.497 4.449,-2.847 6.975,-7.391 7.372,-13.679 0.249,-3.938 0.046,-7.669 0.046,-11.494 z"
       id="path5"
       style="fill:#000000" />
  </g>
</svg>
