<?xml version="1.0" encoding="UTF-8"?>
<svg id="Layer_1" xmlns="http://www.w3.org/2000/svg" xmlns:svg="http://www.w3.org/2000/svg" xmlns:sodipodi="http://sodipodi.sourceforge.net/DTD/sodipodi-0.dtd" xmlns:inkscape="http://www.inkscape.org/namespaces/inkscape" version="1.1" viewBox="0 0 114.803 106.299">
  <!-- Generator: Adobe Illustrator 29.7.1, SVG Export Plug-In . SVG Version: 2.1.1 Build 8)  -->
  <defs>
    <style>
      .st0 {
        fill: #fff;
      }
    </style>
  </defs>
  <path id="path1" class="st0" d="M3.207,23.407c-1.028,0-1.885-.857-1.885-1.885s.857-1.885,1.971-1.885h4.969l1.086-.857v-.514l-1.086-.771h-3.399c-.4,0-.657-.115-.857-.286l-2.37-2.085c-.228-.2-.343-.371-.343-.8v-2.399c0-.429.115-.6.343-.8l2.942-2.599c.2-.171.457-.286.857-.286h5.569c1.028,0,1.885.857,1.885,1.885s-.857,1.885-1.971,1.885h-4.598l-.857.685v.343l.657.685h3.57c.4,0,.657.115.857.286l2.627,2.256c.228.2.343.371.343.8v2.656c0,.429-.115.6-.343.8l-2.942,2.599c-.2.171-.457.286-.857.286H3.207ZM9.091,1.073c.228-.143.571-.228.857-.228.857,0,1.799.685,1.799,1.742,0,.628-.343,1.228-.885,1.571l-3.17,1.999c-.314.2-.6.228-.885.228-.885,0-1.799-.628-1.799-1.742,0-.685.343-1.228.885-1.571l3.199-1.999ZM16.061,4.815c0-1.142.943-2.085,2.085-2.085s2.085.943,2.085,2.085v16.679c0,1.142-.943,2.085-2.085,2.085s-2.085-.943-2.085-2.085V4.815ZM28.401,12.012l-1.086.943v5.74l1.086.943h3.113l1.086-.943v-8.368c0-1.142.943-2.085,2.085-2.085s2.085.943,2.085,2.085v8.254l1.714,1.457c.486.457.714.971.714,1.457,0,.857-.486,1.714-1.428,1.999l-.885,1.571v1.057l.571.628h.828c.885,0,1.628.514,1.628,1.4s-.743,1.485-1.628,1.485h-2.142c-.314,0-.514-.086-.685-.228l-1.771-1.513c-.171-.171-.257-.314-.257-.628v-1.457c0-.314.115-.429.257-.628l1.656-2.313-1.314-1.142-1.685,1.4c-.2.171-.457.286-.857.286h-4.199c-.4,0-.657-.115-.857-.286l-2.942-2.599c-.228-.2-.343-.371-.343-.8v-7.797c0-.429.115-.6.343-.8l2.942-2.599c.2-.171.457-.286.857-.286h2.428c1.028,0,1.885.857,1.885,1.885s-.857,1.885-1.885,1.885h-1.314,0ZM42.368,23.407c-1.028,0-1.885-.857-1.885-1.885s.857-1.885,1.971-1.885h4.969l1.086-.857v-.514l-1.086-.771h-3.399c-.4,0-.657-.115-.857-.286l-2.37-2.085c-.228-.2-.343-.371-.343-.8v-2.399c0-.429.115-.6.343-.8l2.942-2.599c.2-.171.457-.286.857-.286h5.569c1.028,0,1.885.857,1.885,1.885s-.857,1.885-1.971,1.885h-4.598l-.857.685v.343l.657.685h3.57c.4,0,.657.115.857.286l2.627,2.256c.228.2.343.371.343.8v2.656c0,.429-.115.6-.343.8l-2.942,2.599c-.2.171-.457.286-.857.286h-6.169,0ZM64.218,22.321l-3.141-4.713h-1.685v3.884c0,1.142-.943,2.085-2.085,2.085s-2.085-.943-2.085-2.085V4.815c0-1.142.943-2.085,2.085-2.085s2.085.943,2.085,2.085v9.025h1.742l3.085-4.513c.514-.714,1.086-1.257,1.942-1.257,1.171,0,1.999.771,1.999,1.942,0,.514-.172.885-.543,1.4l-2.942,4.284,2.998,4.37c.372.514.542.885.542,1.4,0,1.171-.885,2.113-2.056,2.113-.857,0-1.428-.542-1.942-1.257h0ZM70.588,4.7c0-1.142.943-2.085,2.086-2.085s2.086.943,2.086,2.085-.943,2.085-2.086,2.085-2.086-.943-2.086-2.085ZM70.588,10.155c0-1.142.943-2.085,2.086-2.085s2.086.943,2.086,2.085v11.338c0,1.142-.943,2.085-2.086,2.085s-2.086-.943-2.086-2.085v-11.338ZM3.207,49.115c-1.028,0-1.885-.857-1.885-1.885s.857-1.885,1.971-1.885h4.969l1.086-.857v-.514l-1.086-.771h-3.399c-.4,0-.657-.115-.857-.286l-2.37-2.085c-.228-.2-.343-.371-.343-.8v-2.399c0-.429.115-.6.343-.8l2.942-2.599c.2-.171.457-.286.857-.286h5.569c1.028,0,1.885.857,1.885,1.885s-.857,1.885-1.971,1.885h-4.598l-.857.685v.343l.657.685h3.57c.4,0,.657.115.857.286l2.627,2.256c.228.2.343.371.343.8v2.656c0,.429-.115.6-.343.8l-2.942,2.599c-.2.171-.457.286-.857.286H3.207ZM18.061,42.46l-.8.314c-.228.086-.486.143-.743.143-.999,0-1.942-.828-1.942-1.942,0-.8.457-1.542,1.228-1.856l2.256-.885v-7.711c0-1.142.943-2.085,2.085-2.085s2.085.943,2.085,2.085v6.055l1.171-.486c.228-.086.486-.143.743-.143.943,0,1.942.8,1.942,1.971,0,.8-.486,1.542-1.228,1.828l-2.627,1.057v6.397c0,1.142-.943,2.085-2.085,2.085s-2.085-.943-2.085-2.085v-4.741ZM35.798,45.345l1.086-.943v-5.74l-1.086-.943h-3.085l-1.086.943v5.226c0,1.142-.943,2.085-2.085,2.085s-2.085-.943-2.085-2.085v-6.254c0-.429.115-.6.343-.8l2.942-2.599c.2-.171.457-.286.857-.286h5.312c.4,0,.657.115.857.286l2.942,2.599c.228.2.343.371.343.8v7.797c0,.429-.115.6-.343.8l-2.942,2.599c-.2.171-.457.286-.857.286h-3.798c-1.028,0-1.885-.857-1.885-1.885s.857-1.885,1.971-1.885h2.599-.001ZM42.397,35.834c0-1.086.914-2.057,2.057-2.057.999,0,1.771.743,1.971,1.457l2.285,8.054,2.428-7.911c.314-.971,1.114-1.6,2.057-1.6h.086c.885.057,1.6.628,1.914,1.513l2.571,7.825,1.771-7.739c.2-.857.999-1.6,2.057-1.6,1.114,0,2.057.8,2.057,1.856,0,.429-.143.857-.286,1.285l-3.399,10.91c-.343,1.114-1.285,1.457-2.199,1.457h-.057c-.943,0-1.856-.314-2.228-1.457l-2.37-7.425-2.342,7.425c-.343,1.114-1.285,1.457-2.199,1.457h-.057c-.943,0-1.856-.314-2.228-1.457l-3.627-10.91c-.115-.343-.257-.657-.257-1.086h0ZM68.788,49.314c-1.142,0-2.085-.943-2.085-2.085v-8.454l-1.714-1.457c-.486-.457-.714-.971-.714-1.457,0-1.028.771-2.085,2.113-2.085.542,0,1.142.2,1.685.685l1.371,1.171,1.685-1.4c.199-.171.457-.286.856-.286h4.17c.399,0,.656.115.856.286l2.942,2.599c.228.2.343.371.343.8v9.568c0,1.142-.942,2.085-2.085,2.085s-2.086-.943-2.086-2.085v-8.539l-1.086-.943h-3.085l-1.086.943v8.568c0,1.142-.943,2.085-2.086,2.085h.004ZM83.585,30.407c0-1.142.943-2.085,2.086-2.085s2.086.943,2.086,2.085-.943,2.085-2.086,2.085-2.086-.943-2.086-2.085ZM83.585,35.863c0-1.142.943-2.085,2.086-2.085s2.086.943,2.086,2.085v11.338c0,1.142-.943,2.085-2.086,2.085s-2.086-.943-2.086-2.085v-11.338ZM100.179,48.029l-3.141-4.713h-1.684v3.884c0,1.142-.943,2.085-2.086,2.085s-2.086-.943-2.086-2.085v-16.679c0-1.142.943-2.085,2.086-2.085s2.086.943,2.086,2.085v9.025h1.742l3.085-4.513c.514-.714,1.086-1.257,1.942-1.257,1.17,0,1.999.771,1.999,1.942,0,.514-.171.885-.542,1.4l-2.942,4.284,2.998,4.37c.372.514.543.885.543,1.4,0,1.171-.885,2.113-2.057,2.113-.857,0-1.428-.542-1.942-1.257h0ZM6.666,72.936c0,1.142-.943,2.085-2.085,2.085s-2.085-.942-2.085-2.085v-8.454l-1.714-1.457c-.486-.457-.714-.97-.714-1.456,0-1.028.714-2.086,2.113-2.086.542,0,1.142.2,1.685.685l1.371,1.171,1.685-1.4c.2-.17.457-.285.857-.285h3.57c.4,0,.657.115.857.285l1.714,1.514,1.828-1.514c.2-.17.457-.285.857-.285h3.57c.4,0,.657.115.857.285l2.942,2.6c.228.2.343.371.343.8v9.568c0,1.142-.943,2.085-2.085,2.085s-2.085-.942-2.085-2.085v-8.54l-1.086-.942h-2.484l-1.086.942v8.54c0,1.142-.943,2.085-2.085,2.085s-2.085-.942-2.085-2.085v-8.54l-1.086-.942h-2.484l-1.086.942v8.568h-.001ZM32.344,63.426l-1.086.942v5.74l1.086.943h3.113l1.086-.943v-8.367c0-1.142.943-2.085,2.085-2.085s2.085.942,2.085,2.085v8.254l1.714,1.457c.486.457.714.971.714,1.457,0,1.028-.714,2.085-2.113,2.085-.542,0-1.142-.2-1.685-.685l-1.371-1.17-1.685,1.399c-.2.171-.457.286-.857.286h-4.199c-.4,0-.657-.115-.857-.286l-2.942-2.6c-.228-.199-.343-.371-.343-.8v-7.797c0-.429.115-.6.343-.8l2.942-2.6c.2-.17.457-.285.857-.285h2.428c1.028,0,1.885.856,1.885,1.884s-.857,1.886-1.885,1.886h-1.314,0ZM43.484,80.59c-1.028,0-1.885-.857-1.885-1.885s.857-1.885,1.971-1.885h.6l1.086-.942v-14.309c0-1.142.943-2.086,2.085-2.086s2.085.943,2.085,2.086v15.337c0,.428-.115.6-.343.8l-2.942,2.598c-.2.171-.457.286-.857.286h-1.799ZM45.255,56.115c0-1.142.943-2.086,2.085-2.086s2.085.943,2.085,2.086-.943,2.085-2.085,2.085-2.085-.942-2.085-2.085ZM54.081,74.821c-1.028,0-1.885-.857-1.885-1.885s.857-1.885,1.971-1.885h4.969l1.086-.857v-.514l-1.086-.771h-3.399c-.4,0-.657-.115-.857-.286l-2.37-2.085c-.228-.2-.343-.371-.343-.8v-2.399c0-.429.115-.6.343-.8l2.942-2.6c.2-.17.457-.285.857-.285h5.569c1.028,0,1.885.856,1.885,1.884s-.857,1.886-1.971,1.886h-4.598l-.857.685v.343l.657.685h3.57c.4,0,.657.115.857.285l2.627,2.257c.228.2.343.371.343.8v2.655c0,.429-.115.6-.343.8l-2.942,2.6c-.2.171-.457.286-.857.286h-6.169,0ZM72.018,74.821c-.4,0-.656-.115-.857-.286l-2.942-2.6c-.228-.199-.343-.371-.343-.8v-7.71h-.685c-1.028,0-1.885-.829-1.885-1.857s.857-1.913,1.885-1.913h.685v-2.028c0-1.142.943-2.085,2.086-2.085s2.086.942,2.086,2.085v2.028h2.598c1.028,0,1.885.885,1.885,1.913s-.857,1.857-1.885,1.857h-2.598v6.682l1.084.943h1.514c1.113,0,1.971.857,1.971,1.885s-.858,1.885-1.885,1.885h-2.713ZM82.101,74.821c-.4,0-.657-.115-.858-.286l-2.941-2.6c-.228-.199-.343-.371-.343-.8v-7.797c0-.429.115-.6.343-.8l2.941-2.6c.2-.17.457-.285.858-.285h5.311c.4,0,.657.115.858.285l2.941,2.6c.228.2.343.371.343.8v3.713c0,.971-.343,1.714-1.771,1.714h-5.255c-1.028,0-1.6-.514-1.6-1.542s.571-1.513,1.6-1.513h2.856v-1.485l-1.086-.943h-3.085l-1.086.943v5.882l1.086.943h5.712c1.113,0,1.971.857,1.971,1.885s-.858,1.885-1.885,1.885h-6.911v.002ZM101.323,59.571c1.772,0,2.457.685,2.457,2.028,0,1.028-.4,2.057-1.772,2.057h-1.627l-1.086.942v8.339c0,1.142-.943,2.085-2.086,2.085s-2.085-.942-2.085-2.085v-8.454l-1.714-1.457c-.485-.457-.714-.97-.714-1.456,0-1.028.714-2.086,2.112-2.086.543,0,1.142.2,1.685.685l1.343,1.171,1.714-1.485c.199-.171.457-.286.856-.286h.915ZM107.418,63.533c-1.028,0-1.885-.885-1.885-1.914s.857-1.856,1.885-1.856h4.655c1.028,0,1.885.828,1.885,1.856s-.858,1.914-1.885,1.914h-4.655ZM11.492,99.444l-3.141-4.713h-1.685v3.884c0,1.142-.943,2.086-2.085,2.086s-2.085-.943-2.085-2.086v-16.679c0-1.142.943-2.085,2.085-2.085s2.085.942,2.085,2.085v9.025h1.742l3.085-4.512c.514-.714,1.086-1.257,1.942-1.257,1.171,0,1.999.771,1.999,1.942,0,.513-.171.885-.542,1.399l-2.942,4.284,2.998,4.37c.371.513.542.885.542,1.399,0,1.17-.885,2.113-2.057,2.113-.857,0-1.428-.542-1.942-1.257h0ZM25.489,96.76l1.086-.942v-5.741l-1.086-.943h-3.085l-1.086.943v5.226c0,1.142-.943,2.086-2.085,2.086s-2.085-.943-2.085-2.086v-6.254c0-.428.115-.6.343-.8l2.942-2.598c.2-.172.457-.286.857-.286h5.312c.4,0,.657.115.857.286l2.942,2.598c.228.199.343.372.343.8v7.797c0,.428-.115.6-.343.8l-2.942,2.598c-.2.171-.457.286-.857.286h-3.798c-1.028,0-1.885-.857-1.885-1.885s.857-1.885,1.971-1.885h2.599-.001ZM32.088,87.249c0-1.086.914-2.057,2.057-2.057.999,0,1.771.742,1.971,1.456l2.285,8.054,2.428-7.911c.314-.972,1.114-1.6,2.057-1.6h.086c.885.057,1.6.627,1.914,1.513l2.571,7.825,1.771-7.739c.2-.858.999-1.6,2.057-1.6,1.114,0,2.057.8,2.057,1.856,0,.429-.143.857-.286,1.285l-3.399,10.911c-.343,1.113-1.285,1.456-2.199,1.456h-.057c-.943,0-1.856-.314-2.228-1.456l-2.37-7.425-2.342,7.425c-.343,1.113-1.285,1.456-2.199,1.456h-.057c-.943,0-1.856-.314-2.228-1.456l-3.627-10.911c-.115-.343-.257-.656-.257-1.085h0ZM55.624,97.645c-.228-.2-.343-.372-.343-.8v-9.568c0-1.142.943-2.085,2.085-2.085s2.085.942,2.085,2.085v8.54l1.086.942h3.085l1.086-.942v-8.568c0-1.142.943-2.086,2.085-2.086s2.085.943,2.085,2.086v15.364c0,.429-.115.6-.343.8l-2.941,2.6c-.2.171-.457.286-.857.286h-6.483c-1.028,0-1.885-.857-1.885-1.885s.857-1.885,1.971-1.885h5.283l1.086-.943v-1.542l-.257.199c-.2.171-.457.286-.857.286h-4.17c-.4,0-.657-.115-.857-.286l-2.942-2.598h0Z"/>
  <sodipodi:namedview id="namedview1" bordercolor="#999999" borderopacity="1" inkscape:current-layer="Layer_1" inkscape:cx="77.850387" inkscape:cy="70.865997" inkscape:deskcolor="#d1d1d1" inkscape:document-units="mm" inkscape:pagecheckerboard="0" inkscape:pageopacity="0" inkscape:showpageshadow="2" inkscape:window-height="873" inkscape:window-maximized="0" inkscape:window-width="1464" inkscape:window-x="0" inkscape:window-y="25" inkscape:zoom="2.9351171" pagecolor="#ffffff"/>
  <path id="path11" data-name="path1" d="M4.052,22.562c-1.028,0-1.885-.857-1.885-1.885s.857-1.885,1.971-1.885h4.969l1.086-.857v-.514l-1.086-.771h-3.399c-.4,0-.657-.115-.857-.286l-2.37-2.085c-.228-.2-.343-.371-.343-.8v-2.399c0-.429.115-.6.343-.8l2.942-2.599c.2-.171.457-.286.857-.286h5.569c1.028,0,1.885.857,1.885,1.885s-.857,1.885-1.971,1.885h-4.598l-.857.685v.343l.657.685h3.57c.4,0,.657.115.857.286l2.627,2.256c.228.2.343.371.343.8v2.656c0,.429-.115.6-.343.8l-2.942,2.599c-.2.171-.457.286-.857.286h-6.168ZM9.936.228C10.164.086,10.507,0,10.793,0,11.65,0,12.592.685,12.592,1.742c0,.628-.343,1.228-.885,1.571l-3.17,1.999c-.314.2-.6.228-.885.228-.885,0-1.799-.628-1.799-1.742,0-.685.343-1.228.885-1.571L9.936.228ZM16.906,3.97c0-1.142.943-2.085,2.085-2.085s2.085.943,2.085,2.085v16.679c0,1.142-.943,2.085-2.085,2.085s-2.085-.943-2.085-2.085V3.97ZM29.245,11.167l-1.086.943v5.74l1.086.943h3.113l1.086-.943v-8.368c0-1.142.943-2.085,2.085-2.085s2.085.943,2.085,2.085v8.254l1.714,1.457c.486.457.714.971.714,1.457,0,.857-.486,1.714-1.428,1.999l-.885,1.571v1.057l.571.628h.828c.885,0,1.628.514,1.628,1.4s-.743,1.485-1.628,1.485h-2.142c-.314,0-.514-.086-.685-.228l-1.771-1.513c-.171-.171-.257-.314-.257-.628v-1.457c0-.314.115-.429.257-.628l1.656-2.313-1.314-1.142-1.685,1.4c-.2.171-.457.286-.857.286h-4.199c-.4,0-.657-.115-.857-.286l-2.942-2.599c-.228-.2-.343-.371-.343-.8v-7.797c0-.429.115-.6.343-.8l2.942-2.599c.2-.171.457-.286.857-.286h2.428c1.028,0,1.885.857,1.885,1.885s-.857,1.885-1.885,1.885h-1.314,0ZM43.212,22.562c-1.028,0-1.885-.857-1.885-1.885s.857-1.885,1.971-1.885h4.969l1.086-.857v-.514l-1.086-.771h-3.399c-.4,0-.657-.115-.857-.286l-2.37-2.085c-.228-.2-.343-.371-.343-.8v-2.399c0-.429.115-.6.343-.8l2.942-2.599c.2-.171.457-.286.857-.286h5.569c1.028,0,1.885.857,1.885,1.885s-.857,1.885-1.971,1.885h-4.598l-.857.685v.343l.657.685h3.57c.4,0,.657.115.857.286l2.627,2.256c.228.2.343.371.343.8v2.656c0,.429-.115.6-.343.8l-2.942,2.599c-.2.171-.457.286-.857.286h-6.169,0ZM65.062,21.477l-3.141-4.713h-1.685v3.884c0,1.142-.943,2.085-2.085,2.085s-2.085-.943-2.085-2.085V3.97c0-1.142.943-2.085,2.085-2.085s2.085.943,2.085,2.085v9.025h1.742l3.085-4.513c.514-.714,1.086-1.257,1.942-1.257,1.171,0,1.999.771,1.999,1.942,0,.514-.172.885-.543,1.4l-2.942,4.284,2.998,4.37c.372.514.542.885.542,1.4,0,1.171-.885,2.113-2.056,2.113-.857,0-1.428-.542-1.942-1.257h0ZM71.433,3.856c0-1.142.943-2.085,2.086-2.085s2.086.943,2.086,2.085-.943,2.085-2.086,2.085-2.086-.943-2.086-2.085ZM71.433,9.31c0-1.142.943-2.085,2.086-2.085s2.086.943,2.086,2.085v11.338c0,1.142-.943,2.085-2.086,2.085s-2.086-.943-2.086-2.085v-11.338ZM4.052,48.27c-1.028,0-1.885-.857-1.885-1.885s.857-1.885,1.971-1.885h4.969l1.086-.857v-.514l-1.086-.771h-3.399c-.4,0-.657-.115-.857-.286l-2.37-2.085c-.228-.2-.343-.371-.343-.8v-2.399c0-.429.115-.6.343-.8l2.942-2.599c.2-.171.457-.286.857-.286h5.569c1.028,0,1.885.857,1.885,1.885s-.857,1.885-1.971,1.885h-4.598l-.857.685v.343l.657.685h3.57c.4,0,.657.115.857.286l2.627,2.256c.228.2.343.371.343.8v2.656c0,.429-.115.6-.343.8l-2.942,2.599c-.2.171-.457.286-.857.286h-6.168ZM18.905,41.615l-.8.314c-.228.086-.486.143-.743.143-.999,0-1.942-.828-1.942-1.942,0-.8.457-1.542,1.228-1.856l2.256-.885v-7.711c0-1.142.943-2.085,2.085-2.085s2.085.943,2.085,2.085v6.055l1.171-.486c.228-.086.486-.143.743-.143.943,0,1.942.8,1.942,1.971,0,.8-.486,1.542-1.228,1.828l-2.627,1.057v6.397c0,1.142-.943,2.085-2.085,2.085s-2.085-.943-2.085-2.085v-4.741ZM36.642,44.5l1.086-.943v-5.74l-1.086-.943h-3.085l-1.086.943v5.226c0,1.142-.943,2.085-2.085,2.085s-2.085-.943-2.085-2.085v-6.254c0-.429.115-.6.343-.8l2.942-2.599c.2-.171.457-.286.857-.286h5.312c.4,0,.657.115.857.286l2.942,2.599c.228.2.343.371.343.8v7.797c0,.429-.115.6-.343.8l-2.942,2.599c-.2.171-.457.286-.857.286h-3.798c-1.028,0-1.885-.857-1.885-1.885s.857-1.885,1.971-1.885h2.599-.001ZM43.242,34.99c0-1.086.914-2.057,2.057-2.057.999,0,1.771.743,1.971,1.457l2.285,8.054,2.428-7.911c.314-.971,1.114-1.6,2.057-1.6h.086c.885.057,1.6.628,1.914,1.513l2.571,7.825,1.771-7.739c.2-.857.999-1.6,2.057-1.6,1.114,0,2.057.8,2.057,1.856,0,.429-.143.857-.286,1.285l-3.399,10.91c-.343,1.114-1.285,1.457-2.199,1.457h-.057c-.943,0-1.856-.314-2.228-1.457l-2.37-7.425-2.342,7.425c-.343,1.114-1.285,1.457-2.199,1.457h-.057c-.943,0-1.856-.314-2.228-1.457l-3.627-10.91c-.115-.343-.257-.657-.257-1.086h0ZM69.633,48.469c-1.142,0-2.085-.943-2.085-2.085v-8.454l-1.714-1.457c-.486-.457-.714-.971-.714-1.457,0-1.028.771-2.085,2.113-2.085.542,0,1.142.2,1.685.685l1.371,1.171,1.685-1.4c.199-.171.457-.286.856-.286h4.17c.399,0,.656.115.856.286l2.942,2.599c.228.2.343.371.343.8v9.568c0,1.142-.942,2.085-2.085,2.085s-2.086-.943-2.086-2.085v-8.539l-1.086-.943h-3.085l-1.086.943v8.568c0,1.142-.943,2.085-2.086,2.085h.004ZM84.429,29.563c0-1.142.943-2.085,2.086-2.085s2.086.943,2.086,2.085-.943,2.085-2.086,2.085-2.086-.943-2.086-2.085ZM84.429,35.018c0-1.142.943-2.085,2.086-2.085s2.086.943,2.086,2.085v11.338c0,1.142-.943,2.085-2.086,2.085s-2.086-.943-2.086-2.085v-11.338ZM101.024,47.185l-3.141-4.713h-1.684v3.884c0,1.142-.943,2.085-2.086,2.085s-2.086-.943-2.086-2.085v-16.679c0-1.142.943-2.085,2.086-2.085s2.086.943,2.086,2.085v9.025h1.742l3.085-4.513c.514-.714,1.086-1.257,1.942-1.257,1.17,0,1.999.771,1.999,1.942,0,.514-.171.885-.542,1.4l-2.942,4.284,2.998,4.37c.372.514.543.885.543,1.4,0,1.171-.885,2.113-2.057,2.113-.857,0-1.428-.542-1.942-1.257h0ZM7.51,72.092c0,1.142-.943,2.085-2.085,2.085s-2.085-.942-2.085-2.085v-8.454l-1.714-1.457c-.486-.457-.714-.97-.714-1.456,0-1.028.714-2.086,2.113-2.086.542,0,1.142.2,1.685.685l1.371,1.171,1.685-1.4c.2-.17.457-.285.857-.285h3.57c.4,0,.657.115.857.285l1.714,1.514,1.828-1.514c.2-.17.457-.285.857-.285h3.57c.4,0,.657.115.857.285l2.942,2.6c.228.2.343.371.343.8v9.568c0,1.142-.943,2.085-2.085,2.085s-2.085-.942-2.085-2.085v-8.54l-1.086-.942h-2.484l-1.086.942v8.54c0,1.142-.943,2.085-2.085,2.085s-2.085-.942-2.085-2.085v-8.54l-1.086-.942h-2.484l-1.086.942v8.568h-.001ZM33.188,62.582l-1.086.942v5.74l1.086.943h3.113l1.086-.943v-8.367c0-1.142.943-2.085,2.085-2.085s2.085.942,2.085,2.085v8.254l1.714,1.457c.486.457.714.971.714,1.457,0,1.028-.714,2.085-2.113,2.085-.542,0-1.142-.2-1.685-.685l-1.371-1.17-1.685,1.399c-.2.171-.457.286-.857.286h-4.199c-.4,0-.657-.115-.857-.286l-2.942-2.6c-.228-.199-.343-.371-.343-.8v-7.797c0-.429.115-.6.343-.8l2.942-2.6c.2-.17.457-.285.857-.285h2.428c1.028,0,1.885.856,1.885,1.884s-.857,1.886-1.885,1.886h-1.314,0ZM44.329,79.746c-1.028,0-1.885-.857-1.885-1.885s.857-1.885,1.971-1.885h.6l1.086-.942v-14.309c0-1.142.943-2.086,2.085-2.086s2.085.943,2.085,2.086v15.337c0,.428-.115.6-.343.8l-2.942,2.598c-.2.171-.457.286-.857.286h-1.799ZM46.1,55.271c0-1.142.943-2.086,2.085-2.086s2.085.943,2.085,2.086-.943,2.085-2.085,2.085-2.085-.942-2.085-2.085ZM54.925,73.976c-1.028,0-1.885-.857-1.885-1.885s.857-1.885,1.971-1.885h4.969l1.086-.857v-.514l-1.086-.771h-3.399c-.4,0-.657-.115-.857-.286l-2.37-2.085c-.228-.2-.343-.371-.343-.8v-2.399c0-.429.115-.6.343-.8l2.942-2.6c.2-.17.457-.285.857-.285h5.569c1.028,0,1.885.856,1.885,1.884s-.857,1.886-1.971,1.886h-4.598l-.857.685v.343l.657.685h3.57c.4,0,.657.115.857.285l2.627,2.257c.228.2.343.371.343.8v2.655c0,.429-.115.6-.343.8l-2.942,2.6c-.2.171-.457.286-.857.286h-6.169,0ZM72.863,73.976c-.4,0-.656-.115-.857-.286l-2.942-2.6c-.228-.199-.343-.371-.343-.8v-7.71h-.685c-1.028,0-1.885-.829-1.885-1.857s.857-1.913,1.885-1.913h.685v-2.028c0-1.142.943-2.085,2.086-2.085s2.086.942,2.086,2.085v2.028h2.598c1.028,0,1.885.885,1.885,1.913s-.857,1.857-1.885,1.857h-2.598v6.682l1.084.943h1.514c1.113,0,1.971.857,1.971,1.885s-.858,1.885-1.885,1.885h-2.713ZM82.946,73.976c-.4,0-.657-.115-.858-.286l-2.941-2.6c-.228-.199-.343-.371-.343-.8v-7.797c0-.429.115-.6.343-.8l2.941-2.6c.2-.17.457-.285.858-.285h5.311c.4,0,.657.115.858.285l2.941,2.6c.228.2.343.371.343.8v3.713c0,.971-.343,1.714-1.771,1.714h-5.255c-1.028,0-1.6-.514-1.6-1.542s.571-1.513,1.6-1.513h2.856v-1.485l-1.086-.943h-3.085l-1.086.943v5.882l1.086.943h5.712c1.113,0,1.971.857,1.971,1.885s-.858,1.885-1.885,1.885h-6.911v.002ZM102.168,58.726c1.772,0,2.457.685,2.457,2.028,0,1.028-.4,2.057-1.772,2.057h-1.627l-1.086.942v8.339c0,1.142-.943,2.085-2.086,2.085s-2.085-.942-2.085-2.085v-8.454l-1.714-1.457c-.485-.457-.714-.97-.714-1.456,0-1.028.714-2.086,2.112-2.086.543,0,1.142.2,1.685.685l1.343,1.171,1.714-1.485c.199-.171.457-.286.856-.286h.915ZM108.262,62.688c-1.028,0-1.885-.885-1.885-1.914s.857-1.856,1.885-1.856h4.655c1.028,0,1.885.828,1.885,1.856s-.858,1.914-1.885,1.914h-4.655ZM12.337,98.6l-3.141-4.713h-1.685v3.884c0,1.142-.943,2.086-2.085,2.086s-2.085-.943-2.085-2.086v-16.679c0-1.142.943-2.085,2.085-2.085s2.085.942,2.085,2.085v9.025h1.742l3.085-4.512c.514-.714,1.086-1.257,1.942-1.257,1.171,0,1.999.771,1.999,1.942,0,.513-.171.885-.542,1.399l-2.942,4.284,2.998,4.37c.371.513.542.885.542,1.399,0,1.17-.885,2.113-2.057,2.113-.857,0-1.428-.542-1.942-1.257h0ZM26.334,95.915l1.086-.942v-5.741l-1.086-.943h-3.085l-1.086.943v5.226c0,1.142-.943,2.086-2.085,2.086s-2.085-.943-2.085-2.086v-6.254c0-.428.115-.6.343-.8l2.942-2.598c.2-.172.457-.286.857-.286h5.312c.4,0,.657.115.857.286l2.942,2.598c.228.199.343.372.343.8v7.797c0,.428-.115.6-.343.8l-2.942,2.598c-.2.171-.457.286-.857.286h-3.798c-1.028,0-1.885-.857-1.885-1.885s.857-1.885,1.971-1.885h2.599-.001ZM32.933,86.405c0-1.086.914-2.057,2.057-2.057.999,0,1.771.742,1.971,1.456l2.285,8.054,2.428-7.911c.314-.972,1.114-1.6,2.057-1.6h.086c.885.057,1.6.627,1.914,1.513l2.571,7.825,1.771-7.739c.2-.858.999-1.6,2.057-1.6,1.114,0,2.057.8,2.057,1.856,0,.429-.143.857-.286,1.285l-3.399,10.911c-.343,1.113-1.285,1.456-2.199,1.456h-.057c-.943,0-1.856-.314-2.228-1.456l-2.37-7.425-2.342,7.425c-.343,1.113-1.285,1.456-2.199,1.456h-.057c-.943,0-1.856-.314-2.228-1.456l-3.627-10.911c-.115-.343-.257-.656-.257-1.085h0ZM56.469,96.801c-.228-.2-.343-.372-.343-.8v-9.568c0-1.142.943-2.085,2.085-2.085s2.085.942,2.085,2.085v8.54l1.086.942h3.085l1.086-.942v-8.568c0-1.142.943-2.086,2.085-2.086s2.085.943,2.085,2.086v15.364c0,.429-.115.6-.343.8l-2.941,2.6c-.2.171-.457.286-.857.286h-6.483c-1.028,0-1.885-.857-1.885-1.885s.857-1.885,1.971-1.885h5.283l1.086-.943v-1.542l-.257.199c-.2.171-.457.286-.857.286h-4.17c-.4,0-.657-.115-.857-.286l-2.942-2.598h0Z"/>
</svg>