<?xml version="1.0" encoding="UTF-8" standalone="no"?>
<svg
   id="Layer_1"
   version="1.1"
   viewBox="0 0 153.071 141.732"
   sodipodi:docname="ssm-logo.svg"
   width="40.500034mm"
   height="37.499924mm"
   inkscape:version="1.4 (e7c3feb1, 2024-10-09)"
   xmlns:inkscape="http://www.inkscape.org/namespaces/inkscape"
   xmlns:sodipodi="http://sodipodi.sourceforge.net/DTD/sodipodi-0.dtd"
   xmlns="http://www.w3.org/2000/svg"
   xmlns:svg="http://www.w3.org/2000/svg">
  <defs
     id="defs1" />
  <sodipodi:namedview
     id="namedview1"
     pagecolor="#ffffff"
     bordercolor="#999999"
     borderopacity="1"
     inkscape:showpageshadow="2"
     inkscape:pageopacity="0"
     inkscape:pagecheckerboard="0"
     inkscape:deskcolor="#d1d1d1"
     inkscape:document-units="mm"
     inkscape:zoom="2.9351171"
     inkscape:cx="77.850387"
     inkscape:cy="70.865997"
     inkscape:window-width="1464"
     inkscape:window-height="873"
     inkscape:window-x="0"
     inkscape:window-y="25"
     inkscape:window-maximized="0"
     inkscape:current-layer="Layer_1" />
  <!-- Generator: Adobe Illustrator 29.7.1, SVG Export Plug-In . SVG Version: 2.1.1 Build 8)  -->
  <path
     d="m 4.219,30.324 c -1.382,0 -2.533,-1.152 -2.533,-2.533 0,-1.381 1.152,-2.533 2.649,-2.533 h 6.679 l 1.459,-1.152 V 23.415 L 11.014,22.379 H 6.446 c -0.537,0 -0.883,-0.154 -1.152,-0.384 L 2.108,19.193 C 1.801,18.924 1.647,18.694 1.647,18.118 v -3.224 c 0,-0.576 0.154,-0.806 0.461,-1.075 L 6.062,10.326 C 6.331,10.096 6.676,9.942 7.214,9.942 h 7.485 c 1.382,0 2.533,1.152 2.533,2.533 0,1.381 -1.152,2.533 -2.649,2.533 h -6.18 l -1.152,0.921 v 0.461 l 0.883,0.921 h 4.798 c 0.537,0 0.883,0.154 1.152,0.384 l 3.531,3.032 c 0.307,0.269 0.461,0.499 0.461,1.075 v 3.57 c 0,0.576 -0.154,0.806 -0.461,1.075 l -3.954,3.493 c -0.269,0.23 -0.614,0.384 -1.152,0.384 z M 12.127,0.307 C 12.434,0.115 12.895,0 13.279,0 c 1.152,0 2.418,0.921 2.418,2.341 0,0.844 -0.461,1.651 -1.19,2.111 L 10.246,7.139 C 9.824,7.408 9.44,7.446 9.056,7.446 c -1.19,0 -2.418,-0.844 -2.418,-2.341 0,-0.921 0.461,-1.651 1.19,-2.111 z m 9.368,5.029 c 0,-1.535 1.267,-2.802 2.802,-2.802 1.535,0 2.802,1.267 2.802,2.802 v 22.417 c 0,1.535 -1.267,2.802 -2.802,2.802 -1.535,0 -2.802,-1.267 -2.802,-2.802 z m 16.584,9.673 -1.459,1.267 v 7.715 l 1.459,1.267 h 4.184 l 1.459,-1.267 V 12.744 c 0,-1.535 1.267,-2.802 2.802,-2.802 1.535,0 2.802,1.267 2.802,2.802 v 11.093 l 2.303,1.958 c 0.653,0.614 0.96,1.305 0.96,1.958 0,1.152 -0.653,2.303 -1.919,2.687 l -1.19,2.111 v 1.42 l 0.768,0.844 h 1.113 c 1.19,0 2.188,0.691 2.188,1.881 0,1.19 -0.998,1.996 -2.188,1.996 h -2.879 c -0.422,0 -0.691,-0.115 -0.921,-0.307 l -2.38,-2.034 c -0.23,-0.23 -0.345,-0.422 -0.345,-0.844 v -1.958 c 0,-0.422 0.154,-0.576 0.345,-0.844 l 2.226,-3.109 -1.766,-1.535 -2.265,1.881 c -0.269,0.23 -0.614,0.384 -1.152,0.384 h -5.643 c -0.537,0 -0.883,-0.154 -1.152,-0.384 L 31.475,26.449 C 31.168,26.18 31.014,25.95 31.014,25.374 V 14.895 c 0,-0.576 0.154,-0.806 0.461,-1.075 l 3.954,-3.493 c 0.269,-0.23 0.614,-0.384 1.152,-0.384 h 3.263 c 1.382,0 2.533,1.152 2.533,2.533 0,1.381 -1.152,2.533 -2.533,2.533 h -1.766 z m 18.772,15.315 c -1.382,0 -2.533,-1.152 -2.533,-2.533 0,-1.381 1.152,-2.533 2.649,-2.533 h 6.679 l 1.459,-1.152 v -0.691 l -1.459,-1.036 h -4.568 c -0.537,0 -0.883,-0.154 -1.152,-0.384 L 54.74,19.193 c -0.307,-0.269 -0.461,-0.499 -0.461,-1.075 v -3.224 c 0,-0.576 0.154,-0.806 0.461,-1.075 l 3.954,-3.493 c 0.269,-0.23 0.614,-0.384 1.152,-0.384 h 7.485 c 1.382,0 2.533,1.152 2.533,2.533 0,1.381 -1.152,2.533 -2.649,2.533 h -6.18 l -1.152,0.921 v 0.461 l 0.883,0.921 h 4.798 c 0.537,0 0.883,0.154 1.152,0.384 l 3.531,3.032 c 0.307,0.269 0.461,0.499 0.461,1.075 v 3.57 c 0,0.576 -0.154,0.806 -0.461,1.075 l -3.954,3.493 c -0.269,0.23 -0.614,0.384 -1.152,0.384 H 56.85 Z m 29.367,-1.459 -4.222,-6.334 h -2.265 v 5.22 c 0,1.535 -1.267,2.802 -2.802,2.802 -1.535,0 -2.802,-1.267 -2.802,-2.802 V 5.336 c 0,-1.535 1.267,-2.802 2.802,-2.802 1.535,0 2.802,1.267 2.802,2.802 v 12.13 h 2.341 l 4.146,-6.065 c 0.691,-0.96 1.459,-1.689 2.61,-1.689 1.574,0 2.687,1.036 2.687,2.61 0,0.691 -0.231,1.19 -0.73,1.881 l -3.954,5.758 4.03,5.873 c 0.5,0.691 0.729,1.19 0.729,1.881 0,1.574 -1.189,2.84 -2.763,2.84 -1.152,0 -1.919,-0.729 -2.61,-1.689 z M 94.78,5.182 c 0,-1.535 1.267,-2.802 2.803,-2.802 1.536,0 2.803,1.267 2.803,2.802 0,1.535 -1.267,2.802 -2.803,2.802 -1.536,0 -2.803,-1.267 -2.803,-2.802 z m 0,7.331 c 0,-1.535 1.267,-2.802 2.803,-2.802 1.536,0 2.803,1.267 2.803,2.802 v 15.239 c 0,1.535 -1.267,2.802 -2.803,2.802 -1.536,0 -2.803,-1.267 -2.803,-2.802 z M 4.219,64.876 c -1.382,0 -2.533,-1.152 -2.533,-2.533 0,-1.381 1.152,-2.533 2.649,-2.533 h 6.679 l 1.459,-1.152 V 57.967 L 11.014,56.931 H 6.446 c -0.537,0 -0.883,-0.154 -1.152,-0.384 L 2.108,53.745 C 1.801,53.476 1.647,53.246 1.647,52.67 v -3.224 c 0,-0.576 0.154,-0.806 0.461,-1.075 l 3.954,-3.493 c 0.269,-0.23 0.614,-0.384 1.152,-0.384 h 7.485 c 1.382,0 2.533,1.152 2.533,2.533 0,1.381 -1.152,2.533 -2.649,2.533 h -6.18 l -1.152,0.921 v 0.461 l 0.883,0.921 h 4.798 c 0.537,0 0.883,0.154 1.152,0.384 l 3.531,3.032 c 0.307,0.269 0.461,0.499 0.461,1.075 v 3.57 c 0,0.576 -0.154,0.806 -0.461,1.075 l -3.954,3.493 c -0.269,0.23 -0.614,0.384 -1.152,0.384 z m 19.963,-8.944 -1.075,0.422 c -0.307,0.115 -0.653,0.192 -0.998,0.192 -1.343,0 -2.61,-1.113 -2.61,-2.61 0,-1.075 0.614,-2.073 1.651,-2.495 l 3.032,-1.19 V 39.887 c 0,-1.535 1.267,-2.802 2.802,-2.802 1.535,0 2.802,1.267 2.802,2.802 v 8.138 l 1.574,-0.653 c 0.307,-0.115 0.653,-0.192 0.998,-0.192 1.267,0 2.61,1.075 2.61,2.649 0,1.075 -0.653,2.073 -1.651,2.457 l -3.531,1.42 v 8.598 c 0,1.535 -1.267,2.802 -2.802,2.802 -1.535,0 -2.802,-1.267 -2.802,-2.802 z m 23.839,3.877 1.459,-1.267 V 50.827 L 48.021,49.56 h -4.146 l -1.459,1.267 v 7.024 c 0,1.535 -1.267,2.802 -2.802,2.802 -1.535,0 -2.802,-1.267 -2.802,-2.802 v -8.406 c 0,-0.576 0.154,-0.806 0.461,-1.075 l 3.954,-3.493 c 0.269,-0.23 0.614,-0.384 1.152,-0.384 h 7.14 c 0.537,0 0.883,0.154 1.152,0.384 l 3.954,3.493 c 0.307,0.269 0.461,0.499 0.461,1.075 v 10.479 c 0,0.576 -0.154,0.806 -0.461,1.075 l -3.954,3.493 c -0.269,0.23 -0.614,0.384 -1.152,0.384 h -5.105 c -1.382,0 -2.533,-1.152 -2.533,-2.533 0,-1.381 1.152,-2.533 2.649,-2.533 h 3.493 z m 8.87,-12.782 c 0,-1.459 1.228,-2.764 2.764,-2.764 1.343,0 2.38,0.998 2.649,1.958 l 3.071,10.825 3.263,-10.633 c 0.422,-1.305 1.497,-2.15 2.764,-2.15 h 0.115 c 1.19,0.077 2.15,0.844 2.572,2.034 l 3.455,10.517 2.38,-10.402 c 0.269,-1.152 1.343,-2.15 2.764,-2.15 1.497,0 2.764,1.075 2.764,2.495 0,0.576 -0.192,1.152 -0.384,1.727 L 80.5,63.147 c -0.461,1.497 -1.727,1.958 -2.956,1.958 h -0.077 c -1.267,0 -2.495,-0.422 -2.994,-1.958 l -3.186,-9.98 -3.148,9.98 c -0.461,1.497 -1.727,1.958 -2.956,1.958 h -0.077 c -1.267,0 -2.495,-0.422 -2.994,-1.958 L 57.237,48.484 c -0.154,-0.461 -0.345,-0.883 -0.345,-1.459 z m 35.47,18.117 c -1.535,0 -2.802,-1.267 -2.802,-2.802 V 50.98 l -2.303,-1.958 c -0.653,-0.614 -0.96,-1.305 -0.96,-1.958 0,-1.382 1.036,-2.802 2.84,-2.802 0.729,0 1.535,0.269 2.265,0.921 l 1.842,1.574 2.265,-1.881 c 0.268,-0.23 0.614,-0.384 1.15,-0.384 h 5.605 c 0.536,0 0.882,0.154 1.15,0.384 l 3.954,3.493 c 0.307,0.269 0.461,0.499 0.461,1.075 v 12.859 c 0,1.535 -1.266,2.802 -2.802,2.802 -1.536,0 -2.803,-1.267 -2.803,-2.802 V 50.826 l -1.459,-1.267 h -4.146 l -1.459,1.267 v 11.515 c 0,1.535 -1.267,2.802 -2.803,2.802 z m 19.887,-25.411 c 0,-1.535 1.267,-2.802 2.803,-2.802 1.536,0 2.803,1.267 2.803,2.802 0,1.535 -1.267,2.802 -2.803,2.802 -1.536,0 -2.803,-1.267 -2.803,-2.802 z m 0,7.332 c 0,-1.535 1.267,-2.802 2.803,-2.802 1.536,0 2.803,1.267 2.803,2.802 v 15.239 c 0,1.535 -1.267,2.802 -2.803,2.802 -1.536,0 -2.803,-1.267 -2.803,-2.802 z m 22.303,16.352 -4.222,-6.334 h -2.264 v 5.22 c 0,1.535 -1.267,2.802 -2.803,2.802 -1.536,0 -2.803,-1.267 -2.803,-2.802 V 39.886 c 0,-1.535 1.267,-2.802 2.803,-2.802 1.536,0 2.803,1.267 2.803,2.802 v 12.13 h 2.341 l 4.146,-6.065 c 0.691,-0.96 1.459,-1.689 2.61,-1.689 1.573,0 2.687,1.036 2.687,2.61 0,0.691 -0.23,1.19 -0.729,1.881 l -3.954,5.758 4.03,5.873 c 0.5,0.691 0.73,1.19 0.73,1.881 0,1.574 -1.19,2.84 -2.764,2.84 -1.152,0 -1.919,-0.729 -2.61,-1.689 z M 8.867,96.893 c 0,1.535 -1.267,2.802 -2.802,2.802 -1.535,0 -2.802,-1.266 -2.802,-2.802 V 85.531 L 0.96,83.573 C 0.307,82.959 0,82.269 0,81.616 c 0,-1.382 0.96,-2.803 2.84,-2.803 0.729,0 1.535,0.269 2.265,0.921 l 1.842,1.574 2.265,-1.881 c 0.269,-0.229 0.614,-0.383 1.152,-0.383 h 4.798 c 0.537,0 0.883,0.154 1.152,0.383 l 2.303,2.035 2.457,-2.035 c 0.269,-0.229 0.614,-0.383 1.152,-0.383 h 4.798 c 0.537,0 0.883,0.154 1.152,0.383 l 3.954,3.494 c 0.307,0.269 0.461,0.498 0.461,1.075 v 12.86 c 0,1.535 -1.267,2.802 -2.802,2.802 -1.535,0 -2.802,-1.266 -2.802,-2.802 V 85.378 l -1.459,-1.266 h -3.339 l -1.459,1.266 v 11.478 c 0,1.535 -1.267,2.802 -2.802,2.802 -1.535,0 -2.802,-1.266 -2.802,-2.802 V 85.378 L 13.667,84.112 H 10.328 L 8.869,85.378 V 96.893 Z M 43.379,84.111 41.92,85.377 v 7.715 l 1.459,1.267 h 4.184 l 1.459,-1.267 V 81.846 c 0,-1.535 1.267,-2.802 2.802,-2.802 1.535,0 2.802,1.266 2.802,2.802 v 11.093 l 2.303,1.958 c 0.653,0.614 0.96,1.305 0.96,1.958 0,1.382 -0.96,2.802 -2.84,2.802 -0.729,0 -1.535,-0.269 -2.265,-0.921 l -1.842,-1.573 -2.265,1.88 c -0.269,0.23 -0.614,0.384 -1.152,0.384 h -5.643 c -0.537,0 -0.883,-0.154 -1.152,-0.384 L 36.776,95.549 C 36.469,95.281 36.315,95.051 36.315,94.474 V 83.995 c 0,-0.576 0.154,-0.806 0.461,-1.075 l 3.954,-3.494 c 0.269,-0.229 0.614,-0.383 1.152,-0.383 h 3.263 c 1.382,0 2.533,1.15 2.533,2.532 0,1.382 -1.152,2.535 -2.533,2.535 h -1.766 z m 14.973,23.069 c -1.382,0 -2.533,-1.152 -2.533,-2.533 0,-1.381 1.152,-2.533 2.649,-2.533 h 0.806 l 1.459,-1.266 V 81.617 c 0,-1.535 1.267,-2.803 2.802,-2.803 1.535,0 2.802,1.267 2.802,2.803 v 20.613 c 0,0.575 -0.154,0.806 -0.461,1.075 l -3.954,3.492 c -0.269,0.23 -0.614,0.384 -1.152,0.384 h -2.418 z m 2.38,-32.895 c 0,-1.535 1.267,-2.803 2.802,-2.803 1.535,0 2.802,1.267 2.802,2.803 0,1.536 -1.267,2.802 -2.802,2.802 -1.535,0 -2.802,-1.266 -2.802,-2.802 z m 11.862,25.141 c -1.382,0 -2.533,-1.152 -2.533,-2.533 0,-1.381 1.152,-2.533 2.649,-2.533 h 6.679 l 1.459,-1.152 v -0.691 l -1.459,-1.036 h -4.568 c -0.537,0 -0.883,-0.154 -1.152,-0.385 l -3.186,-2.802 c -0.307,-0.269 -0.461,-0.498 -0.461,-1.075 v -3.224 c 0,-0.576 0.154,-0.806 0.461,-1.075 l 3.954,-3.494 c 0.269,-0.229 0.614,-0.383 1.152,-0.383 h 7.485 c 1.382,0 2.533,1.15 2.533,2.532 0,1.382 -1.152,2.535 -2.649,2.535 h -6.18 l -1.152,0.921 v 0.461 l 0.883,0.921 h 4.798 c 0.537,0 0.883,0.154 1.152,0.383 l 3.531,3.033 c 0.307,0.269 0.461,0.498 0.461,1.075 v 3.569 c 0,0.576 -0.154,0.807 -0.461,1.075 l -3.954,3.494 c -0.269,0.23 -0.614,0.384 -1.152,0.384 h -8.291 z m 24.108,0 c -0.537,0 -0.882,-0.154 -1.152,-0.384 L 91.596,95.548 C 91.289,95.28 91.135,95.05 91.135,94.473 V 84.11 h -0.921 c -1.381,0 -2.533,-1.114 -2.533,-2.496 0,-1.382 1.152,-2.571 2.533,-2.571 h 0.921 v -2.726 c 0,-1.535 1.267,-2.802 2.803,-2.802 1.536,0 2.803,1.266 2.803,2.802 v 2.726 h 3.492 c 1.382,0 2.533,1.189 2.533,2.571 0,1.382 -1.152,2.496 -2.533,2.496 h -3.492 v 8.981 l 1.457,1.267 h 2.035 c 1.496,0 2.649,1.152 2.649,2.533 0,1.381 -1.153,2.533 -2.534,2.533 h -3.646 z m 13.552,0 c -0.538,0 -0.883,-0.154 -1.153,-0.384 l -3.953,-3.494 c -0.307,-0.268 -0.461,-0.498 -0.461,-1.075 V 83.994 c 0,-0.576 0.154,-0.806 0.461,-1.075 l 3.953,-3.494 c 0.269,-0.229 0.614,-0.383 1.153,-0.383 h 7.138 c 0.538,0 0.883,0.154 1.153,0.383 l 3.953,3.494 c 0.307,0.269 0.461,0.498 0.461,1.075 v 4.99 c 0,1.305 -0.461,2.303 -2.38,2.303 h -7.063 c -1.382,0 -2.15,-0.691 -2.15,-2.073 0,-1.382 0.768,-2.034 2.15,-2.034 h 3.838 v -1.996 l -1.459,-1.267 h -4.146 l -1.459,1.267 v 7.906 l 1.459,1.267 h 7.677 c 1.496,0 2.649,1.152 2.649,2.533 0,1.381 -1.153,2.533 -2.534,2.533 h -9.288 z m 25.835,-20.497 c 2.381,0 3.302,0.921 3.302,2.726 0,1.382 -0.538,2.764 -2.381,2.764 h -2.187 l -1.459,1.266 v 11.208 c 0,1.535 -1.267,2.802 -2.803,2.802 -1.536,0 -2.802,-1.266 -2.802,-2.802 V 85.531 l -2.303,-1.958 c -0.652,-0.614 -0.959,-1.304 -0.959,-1.957 0,-1.382 0.959,-2.803 2.839,-2.803 0.73,0 1.535,0.269 2.265,0.921 l 1.805,1.574 2.303,-1.996 c 0.268,-0.23 0.614,-0.384 1.15,-0.384 h 1.228 z m 8.191,5.325 c -1.382,0 -2.533,-1.19 -2.533,-2.572 0,-1.382 1.152,-2.494 2.533,-2.494 h 6.256 c 1.382,0 2.534,1.113 2.534,2.494 0,1.381 -1.153,2.572 -2.534,2.572 z M 15.354,132.52 11.132,126.186 H 8.867 v 5.22 c 0,1.535 -1.267,2.803 -2.802,2.803 -1.535,0 -2.802,-1.267 -2.802,-2.803 v -22.417 c 0,-1.535 1.267,-2.802 2.802,-2.802 1.535,0 2.802,1.266 2.802,2.802 v 12.13 h 2.341 l 4.146,-6.064 c 0.691,-0.96 1.459,-1.689 2.61,-1.689 1.574,0 2.687,1.036 2.687,2.61 0,0.69 -0.23,1.189 -0.729,1.88 l -3.954,5.758 4.03,5.873 c 0.499,0.69 0.729,1.189 0.729,1.88 0,1.573 -1.19,2.84 -2.764,2.84 -1.152,0 -1.919,-0.729 -2.61,-1.689 z m 18.812,-3.608 1.459,-1.266 v -7.716 l -1.459,-1.267 H 30.02 l -1.459,1.267 v 7.024 c 0,1.535 -1.267,2.803 -2.802,2.803 -1.535,0 -2.802,-1.267 -2.802,-2.803 v -8.406 c 0,-0.575 0.154,-0.807 0.461,-1.075 l 3.954,-3.492 c 0.269,-0.231 0.614,-0.385 1.152,-0.385 h 7.14 c 0.537,0 0.883,0.154 1.152,0.385 l 3.954,3.492 c 0.307,0.268 0.461,0.5 0.461,1.075 v 10.48 c 0,0.575 -0.154,0.806 -0.461,1.075 l -3.954,3.492 c -0.269,0.23 -0.614,0.384 -1.152,0.384 h -5.105 c -1.382,0 -2.533,-1.152 -2.533,-2.533 0,-1.381 1.152,-2.533 2.649,-2.533 h 3.493 z m 8.869,-12.782 c 0,-1.46 1.228,-2.764 2.764,-2.764 1.343,0 2.38,0.997 2.649,1.957 l 3.071,10.825 3.263,-10.632 c 0.422,-1.306 1.497,-2.15 2.764,-2.15 h 0.115 c 1.19,0.076 2.15,0.843 2.572,2.034 l 3.455,10.517 2.38,-10.402 c 0.269,-1.153 1.343,-2.15 2.764,-2.15 1.497,0 2.764,1.075 2.764,2.494 0,0.576 -0.192,1.152 -0.384,1.727 l -4.568,14.664 c -0.461,1.496 -1.727,1.957 -2.956,1.957 h -0.077 c -1.267,0 -2.495,-0.422 -2.994,-1.957 l -3.186,-9.98 -3.148,9.98 c -0.461,1.496 -1.727,1.957 -2.956,1.957 H 51.25 c -1.267,0 -2.495,-0.422 -2.994,-1.957 l -4.875,-14.664 c -0.154,-0.461 -0.345,-0.882 -0.345,-1.458 z m 31.633,13.972 c -0.307,-0.269 -0.461,-0.5 -0.461,-1.075 v -12.86 c 0,-1.535 1.267,-2.802 2.802,-2.802 1.535,0 2.802,1.266 2.802,2.802 v 11.478 l 1.459,1.266 h 4.146 l 1.459,-1.266 V 116.13 c 0,-1.535 1.267,-2.803 2.802,-2.803 1.535,0 2.802,1.267 2.802,2.803 v 20.65 c 0,0.576 -0.154,0.807 -0.461,1.075 l -3.953,3.494 c -0.269,0.23 -0.614,0.384 -1.152,0.384 H 78.2 c -1.382,0 -2.533,-1.152 -2.533,-2.533 0,-1.381 1.152,-2.533 2.649,-2.533 h 7.101 l 1.459,-1.267 v -2.072 l -0.345,0.268 c -0.269,0.23 -0.614,0.384 -1.152,0.384 h -5.604 c -0.537,0 -0.883,-0.154 -1.152,-0.384 l -3.954,-3.492 z"
     id="path1"
     style="fill:#000000" />
</svg>
