<?xml version="1.0" encoding="UTF-8" standalone="no"?>
<svg
   id="Layer_1"
   version="1.1"
   viewBox="0 0 188.97638 60.47244"
   sodipodi:docname="logo_wm_black.svg"
   width="50mm"
   height="16mm"
   inkscape:version="1.4 (e7c3feb1, 2024-10-09)"
   xmlns:inkscape="http://www.inkscape.org/namespaces/inkscape"
   xmlns:sodipodi="http://sodipodi.sourceforge.net/DTD/sodipodi-0.dtd"
   xmlns="http://www.w3.org/2000/svg"
   xmlns:svg="http://www.w3.org/2000/svg">
  <defs
     id="defs9" />
  <sodipodi:namedview
     id="namedview9"
     pagecolor="#ffffff"
     bordercolor="#999999"
     borderopacity="1"
     inkscape:showpageshadow="2"
     inkscape:pageopacity="0"
     inkscape:pagecheckerboard="0"
     inkscape:deskcolor="#d1d1d1"
     inkscape:document-units="mm"
     inkscape:zoom="3.9096481"
     inkscape:cx="95.405006"
     inkscape:cy="34.274184"
     inkscape:window-width="1456"
     inkscape:window-height="777"
     inkscape:window-x="0"
     inkscape:window-y="25"
     inkscape:window-maximized="0"
     inkscape:current-layer="Layer_1" />
  <!-- Generator: Adobe Illustrator 29.1.0, SVG Export Plug-In . SVG Version: 2.1.0 Build 142)  -->
  <g
     id="g9"
     transform="matrix(0.38567631,0,0,0.38567631,-0.21867847,-0.14308792)"
     style="fill:#000000">
    <path
       d="m 78.753,0.567 c -43.181,0 -78.186,35.002 -78.186,78.187 0,43.185 35.005,78.184 78.186,78.184 43.181,0 78.186,-35.008 78.186,-78.184 0,-43.176 -35.005,-78.187 -78.186,-78.187 M 63.687,80.215 63.66,80.05 v 0.165 L 48.052,64.608 H 28.892 L 26.287,62 38.983,46.042 l 3.791,3.792 h 7.73 v -7.73 c 0,0 -3.547,-3.545 -3.547,-3.545 l 14.124,-11.35 2.606,2.604 z M 78.603,95.129 70.409,86.934 V 49.097 l 8.194,8.196 z m 14.915,14.918 -8.194,-8.197 V 64.015 l 8.194,8.192 z m 14.916,14.918 -8.194,-8.197 V 78.929 l 8.194,8.198 z m 14.915,1.119 h -8.194 V 93.846 l 8.194,8.195 z"
       id="path1"
       style="fill:#000000" />
    <polygon
       points="240.455,33.698 251.561,33.698 243.555,67.944 229.903,67.944 226.849,54.894 225.831,46.147 225.321,46.147 224.303,54.894 221.249,67.944 207.597,67.944 199.591,33.698 210.79,33.698 213.844,52.071 214.492,57.856 215.186,57.856 216.205,52.071 220.508,33.698 230.737,33.698 235.04,52.071 236.058,57.856 236.706,57.856 237.4,52.071 "
       id="polygon1"
       style="fill:#000000" />
    <path
       d="m 251.95,67.435 10.551,-33.737 h 15.458 l 10.552,33.737 v 0.509 h -10.043 l -2.083,-6.987 h -12.357 l -2.036,6.987 H 251.95 Z m 22.167,-14.392 -1.434,-5.091 -2.036,-7.173 h -0.834 l -2.082,7.265 -1.388,4.999 z"
       id="path2"
       style="fill:#000000" />
    <path
       d="m 308.136,57.346 c -0.462,0.063 -0.933,0.094 -1.412,0.094 h -2.985 V 67.945 H 293.327 V 33.93 c 3.98,-0.463 7.76,-0.694 11.338,-0.694 3.332,0 6.203,0.231 8.609,0.694 2.405,0.463 4.38,1.18 5.924,2.152 1.541,0.972 2.674,2.229 3.4,3.772 0.725,1.542 1.087,3.378 1.087,5.507 0,4.783 -2.159,8.145 -6.479,10.088 l 8.238,12.496 h -11.662 z m -1.434,-7.774 c 1.233,0 2.268,-0.069 3.1,-0.208 0.832,-0.138 1.488,-0.371 1.966,-0.694 0.479,-0.324 0.819,-0.756 1.018,-1.296 0.201,-0.54 0.303,-1.21 0.303,-2.013 0,-0.803 -0.094,-1.473 -0.28,-2.013 -0.183,-0.54 -0.5,-0.965 -0.947,-1.273 -0.449,-0.308 -1.065,-0.524 -1.852,-0.648 -0.786,-0.123 -1.781,-0.185 -2.985,-0.185 -0.432,0 -0.979,0.016 -1.643,0.047 -0.663,0.03 -1.209,0.077 -1.643,0.138 v 7.914 c 0.34,0.092 0.725,0.154 1.158,0.185 0.431,0.031 1.034,0.046 1.805,0.046"
       id="path3"
       style="fill:#000000" />
    <path
       d="m 343.214,68.499 c -0.987,0 -2.044,-0.031 -3.171,-0.092 -1.125,-0.063 -2.283,-0.162 -3.47,-0.302 -1.188,-0.138 -2.369,-0.292 -3.54,-0.462 -1.173,-0.169 -2.283,-0.377 -3.332,-0.625 v -8.33 c 2.498,0.556 4.766,0.979 6.803,1.273 2.035,0.294 3.934,0.44 5.691,0.44 1.851,0 3.156,-0.17 3.911,-0.509 0.755,-0.34 1.134,-0.91 1.134,-1.712 0,-0.895 -0.425,-1.552 -1.273,-1.968 -0.848,-0.416 -2.184,-0.748 -4.002,-0.994 -1.945,-0.279 -3.664,-0.687 -5.16,-1.227 -1.498,-0.54 -2.754,-1.264 -3.772,-2.175 -1.017,-0.909 -1.781,-2.021 -2.291,-3.333 -0.509,-1.31 -0.763,-2.876 -0.763,-4.696 0,-3.332 1.287,-5.924 3.863,-7.775 2.577,-1.852 6.178,-2.777 10.807,-2.777 0.801,0 1.596,0.023 2.383,0.069 0.787,0.047 1.636,0.124 2.546,0.232 0.908,0.108 1.897,0.247 2.96,0.417 1.066,0.169 2.276,0.393 3.633,0.671 v 8.237 c -0.803,-0.247 -1.65,-0.463 -2.544,-0.648 -0.896,-0.185 -1.799,-0.347 -2.707,-0.485 -0.912,-0.14 -1.807,-0.247 -2.685,-0.324 -0.879,-0.077 -1.688,-0.116 -2.428,-0.116 -3.304,0 -4.953,0.756 -4.953,2.267 0,0.988 0.463,1.743 1.388,2.268 0.925,0.525 2.407,0.957 4.444,1.296 1.943,0.339 3.625,0.778 5.045,1.318 1.417,0.541 2.597,1.211 3.54,2.013 0.939,0.803 1.642,1.768 2.104,2.893 0.463,1.126 0.693,2.445 0.693,3.957 0,7.467 -4.951,11.199 -14.854,11.199"
       id="path4"
       style="fill:#000000" />
    <polygon
       points="362.731,60.307 378.511,42.166 378.511,41.703 363.424,41.703 363.424,33.697 391.099,33.697 391.099,41.148 375.272,59.474 375.272,59.937 392.025,59.937 392.025,67.943 362.731,67.943 "
       id="polygon4"
       style="fill:#000000" />
    <polygon
       points="425.182,41.704 415.88,41.704 415.88,67.944 405.468,67.944 405.468,41.704 396.167,41.704 396.167,33.698 425.182,33.698 "
       id="polygon5"
       style="fill:#000000" />
    <path
       d="m 425.079,67.435 10.552,-33.737 h 15.457 l 10.552,33.737 v 0.509 h -10.041 l -2.084,-6.987 h -12.358 l -2.036,6.987 h -10.042 z m 22.168,-14.392 -1.434,-5.091 -2.038,-7.173 h -0.833 l -2.082,7.265 -1.387,4.999 z"
       id="path5"
       style="fill:#000000" />
    <polygon
       points="490.554,41.704 481.251,41.704 481.251,67.944 470.839,67.944 470.839,41.704 461.537,41.704 461.537,33.698 490.554,33.698 "
       id="polygon6"
       style="fill:#000000" />
    <polygon
       points="232.125,109.734 227.45,122.089 219.214,122.089 214.539,109.734 211.716,100.478 211.3,100.478 211.3,123.476 202.136,123.476 202.136,89.232 216.344,89.232 221.434,103.162 223.193,110.056 223.47,110.056 225.275,103.162 230.366,89.232 244.527,89.232 244.527,123.476 235.364,123.476 235.364,100.478 234.948,100.478 "
       id="polygon7"
       style="fill:#000000" />
    <rect
       x="252.20799"
       y="89.233002"
       width="10.414"
       height="34.243999"
       id="rect7"
       style="fill:#000000" />
    <polygon
       points="270.303,89.232 297.144,89.232 297.144,97.191 280.715,97.191 280.715,102.375 295.385,102.375 295.385,110.334 280.715,110.334 280.715,115.472 297.606,115.472 297.606,123.476 270.303,123.476 "
       id="polygon8"
       style="fill:#000000" />
    <path
       d="m 300.719,130.744 c 0.68,-1.543 1.242,-2.979 1.691,-4.305 0.447,-1.326 0.803,-2.633 1.065,-3.91 0.261,-1.279 0.447,-2.592 0.555,-3.935 0.107,-1.34 0.162,-2.813 0.162,-4.42 V 89.232 h 10.459 v 25.778 c 0,1.634 -0.123,3.185 -0.37,4.65 -0.248,1.465 -0.665,2.924 -1.25,4.373 -0.587,1.449 -1.343,2.955 -2.267,4.514 -0.926,1.554 -2.068,3.244 -3.426,5.064 z"
       id="path8"
       style="fill:#000000" />
    <path
       d="m 334.717,124.033 c -0.988,0 -2.045,-0.031 -3.171,-0.092 -1.126,-0.062 -2.283,-0.162 -3.47,-0.303 -1.188,-0.136 -2.369,-0.293 -3.541,-0.46 -1.172,-0.17 -2.283,-0.379 -3.332,-0.625 v -8.331 c 2.499,0.555 4.767,0.979 6.803,1.272 2.037,0.295 3.934,0.439 5.691,0.439 1.852,0 3.156,-0.17 3.912,-0.509 0.755,-0.338 1.134,-0.909 1.134,-1.711 0,-0.895 -0.425,-1.551 -1.273,-1.969 -0.848,-0.414 -2.183,-0.744 -4.003,-0.992 -1.943,-0.278 -3.663,-0.688 -5.16,-1.227 -1.497,-0.541 -2.752,-1.265 -3.772,-2.176 -1.017,-0.91 -1.781,-2.019 -2.291,-3.332 -0.508,-1.312 -0.762,-2.877 -0.762,-4.697 0,-3.332 1.288,-5.924 3.863,-7.773 2.577,-1.854 6.179,-2.778 10.808,-2.778 0.8,0 1.595,0.022 2.382,0.069 0.786,0.047 1.635,0.123 2.545,0.232 0.908,0.108 1.899,0.246 2.961,0.416 1.065,0.17 2.277,0.395 3.633,0.67 v 8.24 c -0.803,-0.248 -1.65,-0.465 -2.544,-0.65 -0.896,-0.184 -1.799,-0.346 -2.708,-0.484 -0.91,-0.141 -1.805,-0.247 -2.684,-0.325 -0.879,-0.076 -1.689,-0.115 -2.429,-0.115 -3.303,0 -4.951,0.756 -4.951,2.268 0,0.986 0.461,1.742 1.388,2.267 0.924,0.524 2.407,0.955 4.443,1.295 1.942,0.34 3.624,0.779 5.044,1.318 1.418,0.542 2.598,1.213 3.54,2.014 0.94,0.803 1.643,1.766 2.105,2.893 0.462,1.125 0.693,2.445 0.693,3.957 0,7.467 -4.95,11.199 -14.854,11.199"
       id="path9"
       style="fill:#000000" />
    <polygon
       points="370.452,110.244 366.01,110.244 366.01,123.476 355.598,123.476 355.598,89.232 366.01,89.232 366.01,102.281 369.852,102.281 376.516,89.232 388.039,89.232 379.477,104.132 376.794,105.382 376.794,105.798 379.571,107.095 388.872,123.476 377.349,123.476 "
       id="polygon9"
       style="fill:#000000" />
    <rect
       x="393.55301"
       y="89.233002"
       width="10.412"
       height="34.243999"
       id="rect9"
       style="fill:#000000" />
  </g>
</svg>
